<svg width="27" height="25" viewBox="0 0 27 25" fill="none" xmlns="http://www.w3.org/2000/svg">
<path d="M21.3333 16.8101H18.6667V19.4767H21.3333M21.3333 11.4767H18.6667V14.1434H21.3333M24 22.1434H13.3333V19.4767H16V16.8101H13.3333V14.1434H16V11.4767H13.3333V8.81006H24M10.6667 6.14339H8V3.47673H10.6667M10.6667 11.4767H8V8.81006H10.6667M10.6667 16.8101H8V14.1434H10.6667M10.6667 22.1434H8V19.4767H10.6667M5.33333 6.14339H2.66667V3.47673H5.33333M5.33333 11.4767H2.66667V8.81006H5.33333M5.33333 16.8101H2.66667V14.1434H5.33333M5.33333 22.1434H2.66667V19.4767H5.33333M13.3333 6.14339V0.810059H0V24.8101H26.6667V6.14339H13.3333Z" fill="white"/>
</svg>
