<svg width="240" height="46" viewBox="0 0 240 46" fill="none" xmlns="http://www.w3.org/2000/svg">
<rect width="240" height="46" rx="12" fill="white"/>
<path d="M102.011 23.2129L98.1438 35H95.0286L100.312 20.7812H102.294L102.011 23.2129ZM105.224 35L101.347 23.2129L101.034 20.7812H103.036L108.349 35H105.224ZM105.048 29.707V32.002H97.5383V29.707H105.048ZM111.991 26.4648V39.0625H109.179V24.4336H111.786L111.991 26.4648ZM118.681 29.5996V29.8047C118.681 30.5729 118.59 31.2858 118.407 31.9434C118.232 32.6009 117.971 33.1738 117.626 33.6621C117.281 34.1439 116.851 34.5215 116.337 34.7949C115.829 35.0618 115.243 35.1953 114.579 35.1953C113.935 35.1953 113.375 35.0651 112.9 34.8047C112.424 34.5443 112.024 34.1797 111.698 33.7109C111.379 33.2357 111.122 32.6855 110.927 32.0605C110.732 31.4355 110.582 30.765 110.478 30.0488V29.5117C110.582 28.7435 110.732 28.0404 110.927 27.4023C111.122 26.7578 111.379 26.2012 111.698 25.7324C112.024 25.2572 112.421 24.8893 112.89 24.6289C113.365 24.3685 113.922 24.2383 114.56 24.2383C115.23 24.2383 115.82 24.3652 116.327 24.6191C116.842 24.873 117.271 25.2376 117.616 25.7129C117.968 26.1882 118.232 26.7546 118.407 27.4121C118.59 28.0697 118.681 28.7988 118.681 29.5996ZM115.859 29.8047V29.5996C115.859 29.1504 115.82 28.737 115.741 28.3594C115.67 27.9753 115.553 27.64 115.39 27.3535C115.234 27.0671 115.025 26.8457 114.765 26.6895C114.511 26.5267 114.202 26.4453 113.837 26.4453C113.453 26.4453 113.124 26.5072 112.851 26.6309C112.584 26.7546 112.366 26.9336 112.197 27.168C112.027 27.4023 111.9 27.6823 111.816 28.0078C111.731 28.3333 111.679 28.7012 111.659 29.1113V30.4688C111.692 30.9505 111.783 31.3835 111.933 31.7676C112.083 32.1452 112.314 32.4447 112.626 32.666C112.939 32.8874 113.349 32.998 113.857 32.998C114.228 32.998 114.54 32.9167 114.794 32.7539C115.048 32.5846 115.253 32.3535 115.409 32.0605C115.572 31.7676 115.686 31.429 115.751 31.0449C115.823 30.6608 115.859 30.2474 115.859 29.8047ZM123.241 26.4648V39.0625H120.429V24.4336H123.036L123.241 26.4648ZM129.931 29.5996V29.8047C129.931 30.5729 129.84 31.2858 129.657 31.9434C129.482 32.6009 129.221 33.1738 128.876 33.6621C128.531 34.1439 128.101 34.5215 127.587 34.7949C127.079 35.0618 126.493 35.1953 125.829 35.1953C125.185 35.1953 124.625 35.0651 124.15 34.8047C123.674 34.5443 123.274 34.1797 122.948 33.7109C122.629 33.2357 122.372 32.6855 122.177 32.0605C121.982 31.4355 121.832 30.765 121.728 30.0488V29.5117C121.832 28.7435 121.982 28.0404 122.177 27.4023C122.372 26.7578 122.629 26.2012 122.948 25.7324C123.274 25.2572 123.671 24.8893 124.14 24.6289C124.615 24.3685 125.172 24.2383 125.81 24.2383C126.48 24.2383 127.07 24.3652 127.577 24.6191C128.092 24.873 128.521 25.2376 128.866 25.7129C129.218 26.1882 129.482 26.7546 129.657 27.4121C129.84 28.0697 129.931 28.7988 129.931 29.5996ZM127.109 29.8047V29.5996C127.109 29.1504 127.07 28.737 126.991 28.3594C126.92 27.9753 126.803 27.64 126.64 27.3535C126.484 27.0671 126.275 26.8457 126.015 26.6895C125.761 26.5267 125.452 26.4453 125.087 26.4453C124.703 26.4453 124.374 26.5072 124.101 26.6309C123.834 26.7546 123.616 26.9336 123.447 27.168C123.277 27.4023 123.15 27.6823 123.066 28.0078C122.981 28.3333 122.929 28.7012 122.909 29.1113V30.4688C122.942 30.9505 123.033 31.3835 123.183 31.7676C123.333 32.1452 123.564 32.4447 123.876 32.666C124.189 32.8874 124.599 32.998 125.107 32.998C125.478 32.998 125.79 32.9167 126.044 32.7539C126.298 32.5846 126.503 32.3535 126.659 32.0605C126.822 31.7676 126.936 31.429 127.001 31.0449C127.073 30.6608 127.109 30.2474 127.109 29.8047ZM144.238 31.2793C144.238 31.0254 144.198 30.7975 144.12 30.5957C144.049 30.3874 143.912 30.1986 143.71 30.0293C143.508 29.8535 143.225 29.681 142.861 29.5117C142.496 29.3424 142.024 29.1667 141.445 28.9844C140.8 28.776 140.188 28.5417 139.609 28.2812C139.036 28.0208 138.528 27.7181 138.085 27.373C137.649 27.0215 137.304 26.6146 137.05 26.1523C136.803 25.6901 136.679 25.153 136.679 24.541C136.679 23.9486 136.809 23.4115 137.07 22.9297C137.33 22.4414 137.695 22.0247 138.163 21.6797C138.632 21.3281 139.185 21.0579 139.823 20.8691C140.468 20.6803 141.174 20.5859 141.943 20.5859C142.991 20.5859 143.906 20.7747 144.687 21.1523C145.468 21.5299 146.073 22.0475 146.503 22.7051C146.939 23.3626 147.157 24.1146 147.157 24.9609H144.247C144.247 24.5443 144.159 24.1797 143.984 23.8672C143.814 23.5482 143.554 23.2975 143.202 23.1152C142.857 22.9329 142.421 22.8418 141.894 22.8418C141.386 22.8418 140.963 22.9199 140.624 23.0762C140.286 23.2259 140.032 23.431 139.863 23.6914C139.693 23.9453 139.609 24.2318 139.609 24.5508C139.609 24.7917 139.667 25.0098 139.784 25.2051C139.908 25.4004 140.09 25.5827 140.331 25.752C140.572 25.9212 140.868 26.0807 141.22 26.2305C141.572 26.3802 141.978 26.5267 142.441 26.6699C143.215 26.9043 143.896 27.168 144.482 27.4609C145.074 27.7539 145.569 28.0827 145.966 28.4473C146.363 28.8118 146.663 29.2253 146.865 29.6875C147.066 30.1497 147.167 30.6738 147.167 31.2598C147.167 31.8783 147.047 32.4316 146.806 32.9199C146.565 33.4082 146.217 33.8216 145.761 34.1602C145.305 34.4987 144.762 34.7559 144.13 34.9316C143.499 35.1074 142.792 35.1953 142.011 35.1953C141.308 35.1953 140.615 35.1042 139.931 34.9219C139.247 34.7331 138.626 34.4499 138.066 34.0723C137.512 33.6947 137.07 33.2129 136.738 32.627C136.406 32.041 136.24 31.3477 136.24 30.5469H139.179C139.179 30.9896 139.247 31.3639 139.384 31.6699C139.521 31.9759 139.713 32.2233 139.96 32.4121C140.214 32.6009 140.514 32.7376 140.859 32.8223C141.21 32.9069 141.594 32.9492 142.011 32.9492C142.519 32.9492 142.935 32.8776 143.261 32.7344C143.593 32.5911 143.837 32.3926 143.993 32.1387C144.156 31.8848 144.238 31.5983 144.238 31.2793ZM154.159 24.4336V26.4258H148.007V24.4336H154.159ZM149.531 21.8262H152.343V31.8164C152.343 32.1224 152.382 32.3568 152.46 32.5195C152.545 32.6823 152.669 32.7962 152.831 32.8613C152.994 32.9199 153.199 32.9492 153.447 32.9492C153.622 32.9492 153.779 32.9427 153.915 32.9297C154.059 32.9102 154.179 32.8906 154.277 32.8711L154.286 34.9414C154.045 35.0195 153.785 35.0814 153.505 35.127C153.225 35.1725 152.916 35.1953 152.577 35.1953C151.959 35.1953 151.419 35.0944 150.956 34.8926C150.501 34.6842 150.149 34.3522 149.902 33.8965C149.654 33.4408 149.531 32.8418 149.531 32.0996V21.8262ZM155.058 29.8242V29.6191C155.058 28.8444 155.169 28.1315 155.39 27.4805C155.611 26.8229 155.934 26.2533 156.357 25.7715C156.78 25.2897 157.301 24.9154 157.919 24.6484C158.538 24.375 159.247 24.2383 160.048 24.2383C160.849 24.2383 161.562 24.375 162.187 24.6484C162.812 24.9154 163.336 25.2897 163.759 25.7715C164.189 26.2533 164.514 26.8229 164.736 27.4805C164.957 28.1315 165.068 28.8444 165.068 29.6191V29.8242C165.068 30.5924 164.957 31.3053 164.736 31.9629C164.514 32.6139 164.189 33.1836 163.759 33.6719C163.336 34.1536 162.815 34.528 162.197 34.7949C161.578 35.0618 160.868 35.1953 160.068 35.1953C159.267 35.1953 158.554 35.0618 157.929 34.7949C157.31 34.528 156.786 34.1536 156.357 33.6719C155.934 33.1836 155.611 32.6139 155.39 31.9629C155.169 31.3053 155.058 30.5924 155.058 29.8242ZM157.87 29.6191V29.8242C157.87 30.2669 157.909 30.6803 157.988 31.0645C158.066 31.4486 158.189 31.7871 158.359 32.0801C158.534 32.3665 158.762 32.5911 159.042 32.7539C159.322 32.9167 159.664 32.998 160.068 32.998C160.458 32.998 160.794 32.9167 161.073 32.7539C161.353 32.5911 161.578 32.3665 161.747 32.0801C161.917 31.7871 162.04 31.4486 162.118 31.0645C162.203 30.6803 162.245 30.2669 162.245 29.8242V29.6191C162.245 29.1895 162.203 28.7858 162.118 28.4082C162.04 28.0241 161.913 27.6855 161.738 27.3926C161.568 27.0931 161.344 26.8587 161.064 26.6895C160.784 26.5202 160.445 26.4355 160.048 26.4355C159.651 26.4355 159.312 26.5202 159.032 26.6895C158.759 26.8587 158.534 27.0931 158.359 27.3926C158.189 27.6855 158.066 28.0241 157.988 28.4082C157.909 28.7858 157.87 29.1895 157.87 29.6191ZM169.609 26.7383V35H166.796V24.4336H169.443L169.609 26.7383ZM172.792 24.3652L172.743 26.9727C172.607 26.9531 172.441 26.9368 172.245 26.9238C172.057 26.9043 171.884 26.8945 171.728 26.8945C171.331 26.8945 170.986 26.9466 170.693 27.0508C170.406 27.1484 170.165 27.2949 169.97 27.4902C169.781 27.6855 169.638 27.9232 169.54 28.2031C169.449 28.4831 169.397 28.8021 169.384 29.1602L168.818 28.9844C168.818 28.3008 168.886 27.6725 169.023 27.0996C169.159 26.5202 169.358 26.0156 169.618 25.5859C169.885 25.1562 170.211 24.8242 170.595 24.5898C170.979 24.3555 171.419 24.2383 171.913 24.2383C172.07 24.2383 172.229 24.2513 172.392 24.2773C172.555 24.2969 172.688 24.3262 172.792 24.3652ZM178.788 35.1953C177.968 35.1953 177.232 35.0651 176.581 34.8047C175.93 34.5378 175.377 34.1699 174.921 33.7012C174.472 33.2324 174.127 32.6888 173.886 32.0703C173.645 31.4453 173.525 30.7812 173.525 30.0781V29.6875C173.525 28.8867 173.639 28.1543 173.866 27.4902C174.094 26.8262 174.42 26.25 174.843 25.7617C175.273 25.2734 175.794 24.8991 176.406 24.6387C177.017 24.3717 177.708 24.2383 178.476 24.2383C179.225 24.2383 179.889 24.362 180.468 24.6094C181.047 24.8568 181.532 25.2083 181.923 25.6641C182.32 26.1198 182.62 26.6667 182.822 27.3047C183.023 27.9362 183.124 28.6393 183.124 29.4141V30.5859H174.726V28.7109H180.361V28.4961C180.361 28.1055 180.289 27.7572 180.146 27.4512C180.009 27.1387 179.801 26.8913 179.521 26.709C179.241 26.5267 178.883 26.4355 178.447 26.4355C178.075 26.4355 177.756 26.5169 177.49 26.6797C177.223 26.8424 177.004 27.0703 176.835 27.3633C176.672 27.6562 176.549 28.0013 176.464 28.3984C176.386 28.7891 176.347 29.2188 176.347 29.6875V30.0781C176.347 30.5013 176.406 30.8919 176.523 31.25C176.646 31.6081 176.819 31.9173 177.04 32.1777C177.268 32.4382 177.542 32.64 177.861 32.7832C178.186 32.9264 178.554 32.998 178.964 32.998C179.472 32.998 179.944 32.9004 180.38 32.7051C180.823 32.5033 181.204 32.2005 181.523 31.7969L182.89 33.2812C182.669 33.6003 182.366 33.9062 181.982 34.1992C181.604 34.4922 181.148 34.7331 180.615 34.9219C180.081 35.1042 179.472 35.1953 178.788 35.1953Z" fill="#181818"/>
<path d="M99.7776 15H98.2297L98.2395 13.8574H99.7776C100.162 13.8574 100.486 13.7712 100.749 13.5986C101.013 13.4229 101.212 13.1673 101.345 12.832C101.482 12.4967 101.55 12.0915 101.55 11.6162V11.2695C101.55 10.9049 101.511 10.5843 101.433 10.3076C101.358 10.0309 101.246 9.79818 101.096 9.60938C100.946 9.42057 100.762 9.27897 100.544 9.18457C100.326 9.08691 100.075 9.03809 99.7922 9.03809H98.2004V7.89062H99.7922C100.267 7.89062 100.702 7.97201 101.096 8.13477C101.493 8.29427 101.837 8.52376 102.126 8.82324C102.416 9.12272 102.639 9.48079 102.795 9.89746C102.955 10.3109 103.034 10.7715 103.034 11.2793V11.6162C103.034 12.1208 102.955 12.5814 102.795 12.998C102.639 13.4147 102.416 13.7728 102.126 14.0723C101.84 14.3685 101.496 14.598 101.096 14.7607C100.699 14.9202 100.259 15 99.7776 15ZM99.0598 7.89062V15H97.595V7.89062H99.0598ZM103.786 12.4121V12.3096C103.786 11.9222 103.842 11.5658 103.952 11.2402C104.063 10.9115 104.224 10.6266 104.436 10.3857C104.647 10.1449 104.908 9.95768 105.217 9.82422C105.526 9.6875 105.881 9.61914 106.281 9.61914C106.682 9.61914 107.038 9.6875 107.351 9.82422C107.663 9.95768 107.925 10.1449 108.137 10.3857C108.352 10.6266 108.515 10.9115 108.625 11.2402C108.736 11.5658 108.791 11.9222 108.791 12.3096V12.4121C108.791 12.7962 108.736 13.1527 108.625 13.4814C108.515 13.807 108.352 14.0918 108.137 14.3359C107.925 14.5768 107.665 14.764 107.356 14.8975C107.046 15.0309 106.692 15.0977 106.291 15.0977C105.891 15.0977 105.534 15.0309 105.222 14.8975C104.913 14.764 104.651 14.5768 104.436 14.3359C104.224 14.0918 104.063 13.807 103.952 13.4814C103.842 13.1527 103.786 12.7962 103.786 12.4121ZM105.193 12.3096V12.4121C105.193 12.6335 105.212 12.8402 105.251 13.0322C105.29 13.2243 105.352 13.3936 105.437 13.54C105.525 13.6833 105.639 13.7956 105.779 13.877C105.919 13.9583 106.089 13.999 106.291 13.999C106.487 13.999 106.654 13.9583 106.794 13.877C106.934 13.7956 107.046 13.6833 107.131 13.54C107.216 13.3936 107.278 13.2243 107.317 13.0322C107.359 12.8402 107.38 12.6335 107.38 12.4121V12.3096C107.38 12.0947 107.359 11.8929 107.317 11.7041C107.278 11.512 107.214 11.3428 107.126 11.1963C107.042 11.0465 106.929 10.9294 106.789 10.8447C106.649 10.7601 106.48 10.7178 106.281 10.7178C106.083 10.7178 105.914 10.7601 105.774 10.8447C105.637 10.9294 105.525 11.0465 105.437 11.1963C105.352 11.3428 105.29 11.512 105.251 11.7041C105.212 11.8929 105.193 12.0947 105.193 12.3096ZM111.164 13.6328L112.263 9.7168H113.156L112.868 11.2549L111.77 15H111.023L111.164 13.6328ZM110.608 9.7168L111.394 13.6279L111.467 15H110.588L109.25 9.7168H110.608ZM114.162 13.5645L114.929 9.7168H116.291L114.953 15H114.079L114.162 13.5645ZM113.279 9.7168L114.372 13.6035L114.524 15H113.772L112.673 11.2598L112.395 9.7168H113.279ZM118.376 10.8447V15H116.97V9.7168H118.288L118.376 10.8447ZM118.171 12.1729H117.79C117.79 11.7822 117.841 11.4307 117.942 11.1182C118.043 10.8024 118.184 10.5339 118.366 10.3125C118.549 10.0879 118.765 9.91699 119.016 9.7998C119.27 9.67936 119.553 9.61914 119.865 9.61914C120.113 9.61914 120.339 9.65495 120.544 9.72656C120.749 9.79818 120.925 9.91211 121.072 10.0684C121.221 10.2246 121.335 10.4313 121.413 10.6885C121.495 10.9456 121.535 11.2598 121.535 11.6309V15H120.119V11.626C120.119 11.3916 120.087 11.2093 120.022 11.0791C119.957 10.9489 119.861 10.8577 119.734 10.8057C119.61 10.7503 119.457 10.7227 119.275 10.7227C119.086 10.7227 118.921 10.7601 118.781 10.835C118.645 10.9098 118.531 11.014 118.44 11.1475C118.352 11.2777 118.285 11.4307 118.24 11.6064C118.194 11.7822 118.171 11.971 118.171 12.1729ZM124.089 7.5V15H122.678V7.5H124.089ZM125.027 12.4121V12.3096C125.027 11.9222 125.082 11.5658 125.193 11.2402C125.303 10.9115 125.464 10.6266 125.676 10.3857C125.888 10.1449 126.148 9.95768 126.457 9.82422C126.767 9.6875 127.121 9.61914 127.522 9.61914C127.922 9.61914 128.279 9.6875 128.591 9.82422C128.904 9.95768 129.166 10.1449 129.377 10.3857C129.592 10.6266 129.755 10.9115 129.865 11.2402C129.976 11.5658 130.031 11.9222 130.031 12.3096V12.4121C130.031 12.7962 129.976 13.1527 129.865 13.4814C129.755 13.807 129.592 14.0918 129.377 14.3359C129.166 14.5768 128.905 14.764 128.596 14.8975C128.287 15.0309 127.932 15.0977 127.531 15.0977C127.131 15.0977 126.775 15.0309 126.462 14.8975C126.153 14.764 125.891 14.5768 125.676 14.3359C125.464 14.0918 125.303 13.807 125.193 13.4814C125.082 13.1527 125.027 12.7962 125.027 12.4121ZM126.433 12.3096V12.4121C126.433 12.6335 126.452 12.8402 126.491 13.0322C126.531 13.2243 126.592 13.3936 126.677 13.54C126.765 13.6833 126.879 13.7956 127.019 13.877C127.159 13.9583 127.33 13.999 127.531 13.999C127.727 13.999 127.894 13.9583 128.034 13.877C128.174 13.7956 128.287 13.6833 128.371 13.54C128.456 13.3936 128.518 13.2243 128.557 13.0322C128.599 12.8402 128.62 12.6335 128.62 12.4121V12.3096C128.62 12.0947 128.599 11.8929 128.557 11.7041C128.518 11.512 128.454 11.3428 128.366 11.1963C128.282 11.0465 128.17 10.9294 128.03 10.8447C127.89 10.7601 127.72 10.7178 127.522 10.7178C127.323 10.7178 127.154 10.7601 127.014 10.8447C126.877 10.9294 126.765 11.0465 126.677 11.1963C126.592 11.3428 126.531 11.512 126.491 11.7041C126.452 11.8929 126.433 12.0947 126.433 12.3096ZM133.747 13.8086V11.4551C133.747 11.2858 133.72 11.141 133.664 11.0205C133.609 10.8968 133.523 10.8008 133.406 10.7324C133.292 10.6641 133.143 10.6299 132.961 10.6299C132.805 10.6299 132.67 10.6576 132.556 10.7129C132.442 10.765 132.354 10.8415 132.292 10.9424C132.23 11.04 132.199 11.1556 132.199 11.2891H130.793C130.793 11.0645 130.845 10.8512 130.949 10.6494C131.054 10.4476 131.205 10.2702 131.404 10.1172C131.602 9.96094 131.838 9.83887 132.112 9.75098C132.388 9.66309 132.698 9.61914 133.039 9.61914C133.449 9.61914 133.814 9.6875 134.133 9.82422C134.452 9.96094 134.703 10.166 134.885 10.4395C135.071 10.7129 135.163 11.0547 135.163 11.4648V13.7256C135.163 14.0153 135.181 14.2529 135.217 14.4385C135.253 14.6208 135.305 14.7803 135.373 14.917V15H133.952C133.884 14.8568 133.832 14.6777 133.796 14.4629C133.764 14.2448 133.747 14.0267 133.747 13.8086ZM133.933 11.7822L133.943 12.5781H133.156C132.971 12.5781 132.81 12.5993 132.673 12.6416C132.536 12.6839 132.424 12.7441 132.336 12.8223C132.248 12.8971 132.183 12.985 132.141 13.0859C132.102 13.1868 132.082 13.2975 132.082 13.418C132.082 13.5384 132.11 13.6475 132.165 13.7451C132.221 13.8395 132.3 13.9144 132.405 13.9697C132.509 14.0218 132.631 14.0479 132.771 14.0479C132.982 14.0479 133.166 14.0055 133.323 13.9209C133.479 13.8363 133.599 13.7321 133.684 13.6084C133.772 13.4847 133.817 13.3675 133.821 13.2568L134.192 13.8525C134.14 13.986 134.068 14.1243 133.977 14.2676C133.889 14.4108 133.777 14.5459 133.64 14.6729C133.503 14.7965 133.339 14.8991 133.147 14.9805C132.955 15.0586 132.727 15.0977 132.463 15.0977C132.128 15.0977 131.823 15.0309 131.55 14.8975C131.28 14.7607 131.065 14.5736 130.906 14.3359C130.749 14.0951 130.671 13.8216 130.671 13.5156C130.671 13.2389 130.723 12.9932 130.827 12.7783C130.932 12.5635 131.085 12.3828 131.286 12.2363C131.491 12.0866 131.747 11.9743 132.053 11.8994C132.359 11.8213 132.714 11.7822 133.117 11.7822H133.933ZM139.367 13.8477V7.5H140.783V15H139.509L139.367 13.8477ZM136.028 12.4219V12.3193C136.028 11.9157 136.073 11.5495 136.164 11.2207C136.255 10.8887 136.389 10.6038 136.565 10.3662C136.74 10.1286 136.957 9.94466 137.214 9.81445C137.471 9.68424 137.764 9.61914 138.093 9.61914C138.402 9.61914 138.672 9.68424 138.904 9.81445C139.138 9.94466 139.337 10.1302 139.499 10.3711C139.665 10.6087 139.799 10.8903 139.9 11.2158C140.001 11.5381 140.074 11.8913 140.119 12.2754V12.5C140.074 12.8678 140.001 13.2096 139.9 13.5254C139.799 13.8411 139.665 14.1178 139.499 14.3555C139.337 14.5898 139.138 14.7721 138.904 14.9023C138.669 15.0326 138.396 15.0977 138.083 15.0977C137.754 15.0977 137.462 15.0309 137.204 14.8975C136.95 14.764 136.736 14.5768 136.56 14.3359C136.387 14.0951 136.255 13.8118 136.164 13.4863C136.073 13.1608 136.028 12.806 136.028 12.4219ZM137.434 12.3193V12.4219C137.434 12.64 137.45 12.8434 137.483 13.0322C137.518 13.221 137.575 13.3887 137.654 13.5352C137.735 13.6784 137.839 13.7907 137.966 13.8721C138.096 13.9502 138.254 13.9893 138.44 13.9893C138.681 13.9893 138.879 13.9355 139.035 13.8281C139.192 13.7174 139.31 13.5661 139.392 13.374C139.476 13.182 139.525 12.9606 139.538 12.71V12.0703C139.529 11.8652 139.499 11.6813 139.45 11.5186C139.405 11.3525 139.337 11.2109 139.245 11.0938C139.157 10.9766 139.047 10.8854 138.913 10.8203C138.783 10.7552 138.628 10.7227 138.449 10.7227C138.267 10.7227 138.111 10.765 137.981 10.8496C137.851 10.931 137.745 11.0433 137.663 11.1865C137.585 11.3298 137.527 11.499 137.488 11.6943C137.452 11.8864 137.434 12.0947 137.434 12.3193ZM144.148 12.4121V12.3096C144.148 11.9222 144.203 11.5658 144.314 11.2402C144.424 10.9115 144.586 10.6266 144.797 10.3857C145.009 10.1449 145.269 9.95768 145.578 9.82422C145.888 9.6875 146.242 9.61914 146.643 9.61914C147.043 9.61914 147.4 9.6875 147.712 9.82422C148.025 9.95768 148.287 10.1449 148.498 10.3857C148.713 10.6266 148.876 10.9115 148.987 11.2402C149.097 11.5658 149.153 11.9222 149.153 12.3096V12.4121C149.153 12.7962 149.097 13.1527 148.987 13.4814C148.876 13.807 148.713 14.0918 148.498 14.3359C148.287 14.5768 148.026 14.764 147.717 14.8975C147.408 15.0309 147.053 15.0977 146.653 15.0977C146.252 15.0977 145.896 15.0309 145.583 14.8975C145.274 14.764 145.012 14.5768 144.797 14.3359C144.586 14.0918 144.424 13.807 144.314 13.4814C144.203 13.1527 144.148 12.7962 144.148 12.4121ZM145.554 12.3096V12.4121C145.554 12.6335 145.573 12.8402 145.613 13.0322C145.652 13.2243 145.713 13.3936 145.798 13.54C145.886 13.6833 146 13.7956 146.14 13.877C146.28 13.9583 146.451 13.999 146.653 13.999C146.848 13.999 147.016 13.9583 147.156 13.877C147.295 13.7956 147.408 13.6833 147.492 13.54C147.577 13.3936 147.639 13.2243 147.678 13.0322C147.72 12.8402 147.741 12.6335 147.741 12.4121V12.3096C147.741 12.0947 147.72 11.8929 147.678 11.7041C147.639 11.512 147.575 11.3428 147.488 11.1963C147.403 11.0465 147.291 10.9294 147.151 10.8447C147.011 10.7601 146.841 10.7178 146.643 10.7178C146.444 10.7178 146.275 10.7601 146.135 10.8447C145.998 10.9294 145.886 11.0465 145.798 11.1963C145.713 11.3428 145.652 11.512 145.613 11.7041C145.573 11.8929 145.554 12.0947 145.554 12.3096ZM151.394 10.8447V15H149.988V9.7168H151.306L151.394 10.8447ZM151.189 12.1729H150.808C150.808 11.7822 150.858 11.4307 150.959 11.1182C151.06 10.8024 151.202 10.5339 151.384 10.3125C151.566 10.0879 151.783 9.91699 152.033 9.7998C152.287 9.67936 152.571 9.61914 152.883 9.61914C153.13 9.61914 153.357 9.65495 153.562 9.72656C153.767 9.79818 153.943 9.91211 154.089 10.0684C154.239 10.2246 154.353 10.4313 154.431 10.6885C154.512 10.9456 154.553 11.2598 154.553 11.6309V15H153.137V11.626C153.137 11.3916 153.104 11.2093 153.039 11.0791C152.974 10.9489 152.878 10.8577 152.751 10.8057C152.628 10.7503 152.475 10.7227 152.292 10.7227C152.103 10.7227 151.939 10.7601 151.799 10.835C151.662 10.9098 151.548 11.014 151.457 11.1475C151.369 11.2777 151.303 11.4307 151.257 11.6064C151.212 11.7822 151.189 11.971 151.189 12.1729ZM160.7 9.7168V10.7129H157.624V9.7168H160.7ZM158.386 8.41309H159.792V13.4082C159.792 13.5612 159.812 13.6784 159.851 13.7598C159.893 13.8411 159.955 13.8981 160.036 13.9307C160.118 13.96 160.22 13.9746 160.344 13.9746C160.432 13.9746 160.51 13.9714 160.578 13.9648C160.65 13.9551 160.71 13.9453 160.759 13.9355L160.764 14.9707C160.643 15.0098 160.513 15.0407 160.373 15.0635C160.233 15.0863 160.079 15.0977 159.909 15.0977C159.6 15.0977 159.33 15.0472 159.099 14.9463C158.871 14.8421 158.695 14.6761 158.572 14.4482C158.448 14.2204 158.386 13.9209 158.386 13.5498V8.41309ZM162.873 7.5V15H161.467V7.5H162.873ZM162.673 12.1729H162.287C162.291 11.805 162.339 11.4665 162.434 11.1572C162.528 10.8447 162.663 10.5745 162.839 10.3467C163.015 10.1156 163.225 9.93652 163.469 9.80957C163.716 9.68262 163.99 9.61914 164.289 9.61914C164.55 9.61914 164.786 9.65658 164.997 9.73145C165.212 9.80306 165.396 9.92025 165.549 10.083C165.705 10.2425 165.826 10.4525 165.91 10.7129C165.995 10.9733 166.037 11.2891 166.037 11.6602V15H164.621V11.6504C164.621 11.416 164.587 11.2321 164.519 11.0986C164.454 10.9619 164.358 10.8659 164.231 10.8105C164.107 10.752 163.954 10.7227 163.772 10.7227C163.57 10.7227 163.397 10.7601 163.254 10.835C163.114 10.9098 163.002 11.014 162.917 11.1475C162.833 11.2777 162.771 11.4307 162.732 11.6064C162.693 11.7822 162.673 11.971 162.673 12.1729ZM169.538 15.0977C169.128 15.0977 168.76 15.0326 168.435 14.9023C168.109 14.7689 167.833 14.585 167.605 14.3506C167.38 14.1162 167.208 13.8444 167.087 13.5352C166.967 13.2227 166.906 12.8906 166.906 12.5391V12.3438C166.906 11.9434 166.963 11.5771 167.077 11.2451C167.191 10.9131 167.354 10.625 167.566 10.3809C167.781 10.1367 168.041 9.94954 168.347 9.81934C168.653 9.68587 168.998 9.61914 169.382 9.61914C169.756 9.61914 170.088 9.68099 170.378 9.80469C170.668 9.92839 170.91 10.1042 171.106 10.332C171.304 10.5599 171.454 10.8333 171.555 11.1523C171.656 11.4681 171.706 11.8197 171.706 12.207V12.793H167.507V11.8555H170.324V11.748C170.324 11.5527 170.289 11.3786 170.217 11.2256C170.149 11.0693 170.045 10.9456 169.905 10.8545C169.765 10.7633 169.586 10.7178 169.367 10.7178C169.182 10.7178 169.022 10.7585 168.889 10.8398C168.755 10.9212 168.646 11.0352 168.562 11.1816C168.48 11.3281 168.419 11.5007 168.376 11.6992C168.337 11.8945 168.318 12.1094 168.318 12.3438V12.5391C168.318 12.7507 168.347 12.946 168.406 13.125C168.467 13.304 168.554 13.4587 168.664 13.5889C168.778 13.7191 168.915 13.82 169.074 13.8916C169.237 13.9632 169.421 13.999 169.626 13.999C169.88 13.999 170.116 13.9502 170.334 13.8525C170.556 13.7516 170.746 13.6003 170.906 13.3984L171.589 14.1406C171.478 14.3001 171.327 14.4531 171.135 14.5996C170.946 14.7461 170.718 14.8665 170.451 14.9609C170.184 15.0521 169.88 15.0977 169.538 15.0977Z" fill="#181818"/>
<path d="M78.4631 37.7161C76.7211 39.4048 74.8191 39.1382 72.9882 38.3383C71.0507 37.5206 69.2731 37.485 67.2289 38.3383C64.6693 39.4403 63.3183 39.1204 61.7896 37.7161C53.1152 28.775 54.395 15.159 64.2427 14.6613C66.6424 14.7857 68.3133 15.9766 69.7175 16.0833C71.815 15.6567 73.8237 14.4302 76.0634 14.5902C78.7475 14.8035 80.7739 15.87 82.1071 17.7897C76.5611 21.1138 77.8765 28.4195 82.9603 30.4637C81.9471 33.13 80.6317 35.7786 78.4453 37.7339L78.4631 37.7161ZM69.5398 14.5546C69.2731 10.5907 72.4905 7.31996 76.1878 7C76.7033 11.5861 72.0283 14.999 69.5398 14.5546Z" fill="black"/>
</svg>
