<svg width="22" height="25" viewBox="0 0 22 25" fill="none" xmlns="http://www.w3.org/2000/svg">
<path d="M20.4 24.8101H1.2C0.88174 24.8101 0.576515 24.6836 0.351472 24.4586C0.126428 24.2335 0 23.9283 0 23.6101V2.01006C0 1.6918 0.126428 1.38657 0.351472 1.16153C0.576515 0.936487 0.88174 0.810059 1.2 0.810059H20.4C20.7183 0.810059 21.0235 0.936487 21.2485 1.16153C21.4736 1.38657 21.6 1.6918 21.6 2.01006V23.6101C21.6 23.9283 21.4736 24.2335 21.2485 24.4586C21.0235 24.6836 20.7183 24.8101 20.4 24.8101ZM19.2 22.4101V3.21006H2.4V22.4101H19.2ZM4.8 5.61006H9.6V10.4101H4.8V5.61006ZM4.8 12.8101H16.8V15.2101H4.8V12.8101ZM4.8 17.6101H16.8V20.0101H4.8V17.6101ZM12 6.81006H16.8V9.21006H12V6.81006Z" fill="white"/>
</svg>
