<svg width="28" height="27" viewBox="0 0 28 27" fill="none" xmlns="http://www.w3.org/2000/svg">
<path d="M23.5 1.81006H4.5C3.57255 1.8127 2.68385 2.18229 2.02804 2.8381C1.37223 3.49391 1.00264 4.38261 1 5.31006V17.3101C1.00264 18.2375 1.37223 19.1262 2.02804 19.782C2.68385 20.4378 3.57255 20.8074 4.5 20.8101H7V25.8101L12.8575 20.9263C12.9474 20.8512 13.0609 20.81 13.1781 20.8101H23.5C24.4274 20.8074 25.3162 20.4378 25.972 19.782C26.6278 19.1262 26.9974 18.2375 27 17.3101V5.31006C26.9974 4.38261 26.6278 3.49391 25.972 2.8381C25.3162 2.18229 24.4274 1.8127 23.5 1.81006Z" stroke="white" stroke-width="2" stroke-linejoin="round"/>
<path d="M8 13.3101C9.10457 13.3101 10 12.4146 10 11.3101C10 10.2055 9.10457 9.31006 8 9.31006C6.89543 9.31006 6 10.2055 6 11.3101C6 12.4146 6.89543 13.3101 8 13.3101Z" fill="white"/>
<path d="M14 13.3101C15.1046 13.3101 16 12.4146 16 11.3101C16 10.2055 15.1046 9.31006 14 9.31006C12.8954 9.31006 12 10.2055 12 11.3101C12 12.4146 12.8954 13.3101 14 13.3101Z" fill="white"/>
<path d="M20 13.3101C21.1046 13.3101 22 12.4146 22 11.3101C22 10.2055 21.1046 9.31006 20 9.31006C18.8954 9.31006 18 10.2055 18 11.3101C18 12.4146 18.8954 13.3101 20 13.3101Z" fill="white"/>
</svg>
