<svg width="21" height="25" viewBox="0 0 21 25" fill="none" xmlns="http://www.w3.org/2000/svg">
<path d="M10.8 24.8101L10.5 21.2101H10.2C7.36 21.2101 4.95 20.2201 2.97 18.2401C0.99 16.2601 0 13.8501 0 11.0101C0 8.17006 0.99 5.76006 2.97 3.78006C4.95 1.80006 7.36 0.810059 10.2 0.810059C11.62 0.810059 12.9452 1.07486 14.1756 1.60446C15.406 2.13406 16.486 2.86406 17.4156 3.79446C18.3452 4.72486 19.0748 5.80486 19.6044 7.03446C20.134 8.26406 20.3992 9.58926 20.4 11.0101C20.4 12.5101 20.1548 13.9501 19.6644 15.3301C19.174 16.7101 18.504 17.9901 17.6544 19.1701C16.8048 20.3501 15.7948 21.4201 14.6244 22.3801C13.454 23.3401 12.1792 24.1501 10.8 24.8101ZM13.2 20.4301C14.62 19.2301 15.7752 17.8249 16.6656 16.2145C17.556 14.6041 18.0008 12.8693 18 11.0101C18 8.83006 17.2448 6.98526 15.7344 5.47566C14.224 3.96606 12.3792 3.21086 10.2 3.21006C8.02 3.21006 6.1752 3.96526 4.6656 5.47566C3.156 6.98606 2.4008 8.83086 2.4 11.0101C2.4 13.1901 3.1552 15.0349 4.6656 16.5445C6.176 18.0541 8.0208 18.8093 10.2 18.8101H13.2V20.4301ZM10.17 17.5801C10.51 17.5801 10.8 17.4601 11.04 17.2201C11.28 16.9801 11.4 16.6901 11.4 16.3501C11.4 16.0101 11.28 15.7201 11.04 15.4801C10.8 15.2401 10.51 15.1201 10.17 15.1201C9.83 15.1201 9.54 15.2401 9.3 15.4801C9.06 15.7201 8.94 16.0101 8.94 16.3501C8.94 16.6901 9.06 16.9801 9.3 17.2201C9.54 17.4601 9.83 17.5801 10.17 17.5801ZM9.3 13.7701H11.1C11.1 13.1701 11.16 12.7501 11.28 12.5101C11.4 12.2701 11.78 11.8301 12.42 11.1901C12.78 10.8301 13.08 10.4401 13.32 10.0201C13.56 9.60006 13.68 9.15006 13.68 8.67006C13.68 7.65006 13.3348 6.88486 12.6444 6.37446C11.954 5.86406 11.1392 5.60926 10.2 5.61006C9.32 5.61006 8.58 5.85526 7.98 6.34566C7.38 6.83606 6.96 7.43086 6.72 8.13006L8.4 8.79006C8.5 8.45006 8.69 8.11486 8.97 7.78446C9.25 7.45406 9.66 7.28926 10.2 7.29006C10.74 7.29006 11.1448 7.44006 11.4144 7.74006C11.684 8.04006 11.8192 8.37006 11.82 8.73006C11.82 9.07006 11.72 9.37526 11.52 9.64566C11.32 9.91606 11.08 10.1909 10.8 10.4701C10.1 11.0701 9.6748 11.5453 9.5244 11.8957C9.374 12.2461 9.2992 12.8709 9.3 13.7701Z" fill="white"/>
</svg>
