<svg width="240" height="46" viewBox="0 0 240 46" fill="none" xmlns="http://www.w3.org/2000/svg">
<rect width="240" height="46" rx="12" fill="white"/>
<path d="M94.2166 12.2842V15.1016C94.1059 15.235 93.935 15.3799 93.7039 15.5361C93.4727 15.6891 93.1749 15.821 92.8103 15.9316C92.4457 16.0423 92.0046 16.0977 91.4871 16.0977C91.0281 16.0977 90.6098 16.0228 90.2322 15.873C89.8546 15.7201 89.5291 15.4971 89.2556 15.2041C88.9854 14.9111 88.7771 14.5531 88.6306 14.1299C88.4841 13.7035 88.4109 13.2168 88.4109 12.6699V12.2256C88.4109 11.6787 88.4809 11.1921 88.6208 10.7656C88.7641 10.3392 88.9675 9.97949 89.2312 9.68652C89.4949 9.39355 89.809 9.17057 90.1736 9.01758C90.5382 8.86458 90.9434 8.78809 91.3894 8.78809C92.0079 8.78809 92.5157 8.889 92.9128 9.09082C93.31 9.28939 93.6127 9.56608 93.821 9.9209C94.0326 10.2725 94.1628 10.6761 94.2117 11.1318H92.7908C92.755 10.891 92.6866 10.681 92.5857 10.502C92.4848 10.3229 92.3399 10.1829 92.1511 10.082C91.9656 9.98112 91.7247 9.93066 91.4285 9.93066C91.1843 9.93066 90.9662 9.98112 90.7742 10.082C90.5854 10.1797 90.4259 10.3245 90.2957 10.5166C90.1654 10.7087 90.0662 10.9463 89.9978 11.2295C89.9294 11.5127 89.8953 11.8415 89.8953 12.2158V12.6699C89.8953 13.041 89.9311 13.3698 90.0027 13.6562C90.0743 13.9395 90.1801 14.1787 90.3201 14.374C90.4633 14.5661 90.6391 14.7109 90.8474 14.8086C91.0557 14.9062 91.2983 14.9551 91.575 14.9551C91.8061 14.9551 91.9981 14.9355 92.1511 14.8965C92.3074 14.8574 92.4327 14.8102 92.5271 14.7549C92.6248 14.6963 92.6996 14.641 92.7517 14.5889V13.3291H91.4138V12.2842H94.2166ZM97.7419 16.0977C97.3318 16.0977 96.9639 16.0326 96.6384 15.9023C96.3129 15.7689 96.0362 15.585 95.8083 15.3506C95.5837 15.1162 95.4112 14.8444 95.2908 14.5352C95.1703 14.2227 95.1101 13.8906 95.1101 13.5391V13.3438C95.1101 12.9434 95.1671 12.5771 95.281 12.2451C95.3949 11.9131 95.5577 11.625 95.7693 11.3809C95.9841 11.1367 96.2445 10.9495 96.5505 10.8193C96.8565 10.6859 97.2016 10.6191 97.5857 10.6191C97.96 10.6191 98.2921 10.681 98.5818 10.8047C98.8715 10.9284 99.114 11.1042 99.3093 11.332C99.5079 11.5599 99.6576 11.8333 99.7585 12.1523C99.8595 12.4681 99.9099 12.8197 99.9099 13.207V13.793H95.7107V12.8555H98.5281V12.748C98.5281 12.5527 98.4923 12.3786 98.4207 12.2256C98.3523 12.0693 98.2481 11.9456 98.1082 11.8545C97.9682 11.7633 97.7891 11.7178 97.571 11.7178C97.3855 11.7178 97.226 11.7585 97.0925 11.8398C96.9591 11.9212 96.85 12.0352 96.7654 12.1816C96.684 12.3281 96.6222 12.5007 96.5798 12.6992C96.5408 12.8945 96.5212 13.1094 96.5212 13.3438V13.5391C96.5212 13.7507 96.5505 13.946 96.6091 14.125C96.671 14.304 96.7572 14.4587 96.8679 14.5889C96.9819 14.7191 97.1186 14.82 97.2781 14.8916C97.4408 14.9632 97.6248 14.999 97.8298 14.999C98.0837 14.999 98.3197 14.9502 98.5378 14.8525C98.7592 14.7516 98.9496 14.6003 99.1091 14.3984L99.7927 15.1406C99.682 15.3001 99.5307 15.4531 99.3386 15.5996C99.1498 15.7461 98.922 15.8665 98.655 15.9609C98.3881 16.0521 98.0837 16.0977 97.7419 16.0977ZM103.299 10.7168V11.7129H100.222V10.7168H103.299ZM100.984 9.41309H102.39V14.4082C102.39 14.5612 102.41 14.6784 102.449 14.7598C102.491 14.8411 102.553 14.8981 102.635 14.9307C102.716 14.96 102.818 14.9746 102.942 14.9746C103.03 14.9746 103.108 14.9714 103.177 14.9648C103.248 14.9551 103.308 14.9453 103.357 14.9355L103.362 15.9707C103.242 16.0098 103.111 16.0407 102.971 16.0635C102.831 16.0863 102.677 16.0977 102.508 16.0977C102.198 16.0977 101.928 16.0472 101.697 15.9463C101.469 15.8421 101.293 15.6761 101.17 15.4482C101.046 15.2204 100.984 14.9209 100.984 14.5498V9.41309ZM108.074 10.7168V16H106.663V10.7168H108.074ZM106.575 9.33984C106.575 9.13477 106.647 8.96549 106.79 8.83203C106.933 8.69857 107.125 8.63184 107.366 8.63184C107.604 8.63184 107.794 8.69857 107.937 8.83203C108.084 8.96549 108.157 9.13477 108.157 9.33984C108.157 9.54492 108.084 9.71419 107.937 9.84766C107.794 9.98112 107.604 10.0479 107.366 10.0479C107.125 10.0479 106.933 9.98112 106.79 9.84766C106.647 9.71419 106.575 9.54492 106.575 9.33984ZM111.824 10.7168V11.7129H108.748V10.7168H111.824ZM109.51 9.41309H110.916V14.4082C110.916 14.5612 110.935 14.6784 110.974 14.7598C111.017 14.8411 111.079 14.8981 111.16 14.9307C111.241 14.96 111.344 14.9746 111.468 14.9746C111.555 14.9746 111.634 14.9714 111.702 14.9648C111.774 14.9551 111.834 14.9453 111.883 14.9355L111.887 15.9707C111.767 16.0098 111.637 16.0407 111.497 16.0635C111.357 16.0863 111.202 16.0977 111.033 16.0977C110.724 16.0977 110.454 16.0472 110.222 15.9463C109.995 15.8421 109.819 15.6761 109.695 15.4482C109.571 15.2204 109.51 14.9209 109.51 14.5498V9.41309ZM114.89 13.4121V13.3096C114.89 12.9222 114.946 12.5658 115.056 12.2402C115.167 11.9115 115.328 11.6266 115.54 11.3857C115.751 11.1449 116.012 10.9577 116.321 10.8242C116.63 10.6875 116.985 10.6191 117.385 10.6191C117.786 10.6191 118.142 10.6875 118.455 10.8242C118.767 10.9577 119.029 11.1449 119.241 11.3857C119.456 11.6266 119.619 11.9115 119.729 12.2402C119.84 12.5658 119.895 12.9222 119.895 13.3096V13.4121C119.895 13.7962 119.84 14.1527 119.729 14.4814C119.619 14.807 119.456 15.0918 119.241 15.3359C119.029 15.5768 118.769 15.764 118.46 15.8975C118.15 16.0309 117.796 16.0977 117.395 16.0977C116.995 16.0977 116.638 16.0309 116.326 15.8975C116.017 15.764 115.755 15.5768 115.54 15.3359C115.328 15.0918 115.167 14.807 115.056 14.4814C114.946 14.1527 114.89 13.7962 114.89 13.4121ZM116.297 13.3096V13.4121C116.297 13.6335 116.316 13.8402 116.355 14.0322C116.394 14.2243 116.456 14.3936 116.541 14.54C116.629 14.6833 116.743 14.7956 116.883 14.877C117.023 14.9583 117.193 14.999 117.395 14.999C117.591 14.999 117.758 14.9583 117.898 14.877C118.038 14.7956 118.15 14.6833 118.235 14.54C118.32 14.3936 118.382 14.2243 118.421 14.0322C118.463 13.8402 118.484 13.6335 118.484 13.4121V13.3096C118.484 13.0947 118.463 12.8929 118.421 12.7041C118.382 12.512 118.318 12.3428 118.23 12.1963C118.146 12.0465 118.033 11.9294 117.893 11.8447C117.753 11.7601 117.584 11.7178 117.385 11.7178C117.187 11.7178 117.018 11.7601 116.878 11.8447C116.741 11.9294 116.629 12.0465 116.541 12.1963C116.456 12.3428 116.394 12.512 116.355 12.7041C116.316 12.8929 116.297 13.0947 116.297 13.3096ZM122.136 11.8447V16H120.73V10.7168H122.049L122.136 11.8447ZM121.931 13.1729H121.551C121.551 12.7822 121.601 12.4307 121.702 12.1182C121.803 11.8024 121.944 11.5339 122.127 11.3125C122.309 11.0879 122.525 10.917 122.776 10.7998C123.03 10.6794 123.313 10.6191 123.626 10.6191C123.873 10.6191 124.099 10.6549 124.304 10.7266C124.51 10.7982 124.685 10.9121 124.832 11.0684C124.982 11.2246 125.095 11.4313 125.174 11.6885C125.255 11.9456 125.296 12.2598 125.296 12.6309V16H123.88V12.626C123.88 12.3916 123.847 12.2093 123.782 12.0791C123.717 11.9489 123.621 11.8577 123.494 11.8057C123.37 11.7503 123.217 11.7227 123.035 11.7227C122.846 11.7227 122.682 11.7601 122.542 11.835C122.405 11.9098 122.291 12.014 122.2 12.1475C122.112 12.2777 122.045 12.4307 122 12.6064C121.954 12.7822 121.931 12.971 121.931 13.1729Z" fill="#181818"/>
<path d="M99.4861 28.5684V34.2031C99.2647 34.4701 98.9229 34.7598 98.4607 35.0723C97.9985 35.3783 97.4028 35.6419 96.6736 35.8633C95.9444 36.0846 95.0623 36.1953 94.0271 36.1953C93.1091 36.1953 92.2725 36.0456 91.5173 35.7461C90.7621 35.4401 90.1111 34.9941 89.5642 34.4082C89.0238 33.8223 88.6072 33.1061 88.3142 32.2598C88.0212 31.4069 87.8748 30.4336 87.8748 29.3398V28.4512C87.8748 27.3574 88.0147 26.3841 88.2947 25.5312C88.5811 24.6784 88.988 23.959 89.5154 23.373C90.0427 22.7871 90.671 22.3411 91.4001 22.0352C92.1293 21.7292 92.9399 21.5762 93.8318 21.5762C95.0688 21.5762 96.0844 21.778 96.8787 22.1816C97.6729 22.5788 98.2784 23.1322 98.6951 23.8418C99.1182 24.5449 99.3787 25.3522 99.4763 26.2637H96.6345C96.5629 25.7819 96.4262 25.362 96.2244 25.0039C96.0225 24.6458 95.7328 24.3659 95.3552 24.1641C94.9841 23.9622 94.5024 23.8613 93.9099 23.8613C93.4216 23.8613 92.9854 23.9622 92.6013 24.1641C92.2237 24.3594 91.9047 24.6491 91.6443 25.0332C91.3839 25.4173 91.1853 25.8926 91.0486 26.459C90.9119 27.0254 90.8435 27.6829 90.8435 28.4316V29.3398C90.8435 30.082 90.9151 30.7396 91.0583 31.3125C91.2016 31.8789 91.4132 32.3574 91.6931 32.748C91.9796 33.1322 92.3311 33.4219 92.7478 33.6172C93.1645 33.8125 93.6495 33.9102 94.2029 33.9102C94.6651 33.9102 95.0492 33.8711 95.3552 33.793C95.6677 33.7148 95.9184 33.6204 96.1072 33.5098C96.3025 33.3926 96.4522 33.2819 96.5564 33.1777V30.6582H93.8806V28.5684H99.4861ZM101.224 30.8242V30.6191C101.224 29.8444 101.335 29.1315 101.556 28.4805C101.778 27.8229 102.1 27.2533 102.523 26.7715C102.946 26.2897 103.467 25.9154 104.086 25.6484C104.704 25.375 105.414 25.2383 106.215 25.2383C107.015 25.2383 107.728 25.375 108.353 25.6484C108.978 25.9154 109.502 26.2897 109.926 26.7715C110.355 27.2533 110.681 27.8229 110.902 28.4805C111.123 29.1315 111.234 29.8444 111.234 30.6191V30.8242C111.234 31.5924 111.123 32.3053 110.902 32.9629C110.681 33.6139 110.355 34.1836 109.926 34.6719C109.502 35.1536 108.982 35.528 108.363 35.7949C107.745 36.0618 107.035 36.1953 106.234 36.1953C105.433 36.1953 104.72 36.0618 104.095 35.7949C103.477 35.528 102.953 35.1536 102.523 34.6719C102.1 34.1836 101.778 33.6139 101.556 32.9629C101.335 32.3053 101.224 31.5924 101.224 30.8242ZM104.037 30.6191V30.8242C104.037 31.2669 104.076 31.6803 104.154 32.0645C104.232 32.4486 104.356 32.7871 104.525 33.0801C104.701 33.3665 104.929 33.5911 105.209 33.7539C105.489 33.9167 105.83 33.998 106.234 33.998C106.625 33.998 106.96 33.9167 107.24 33.7539C107.52 33.5911 107.745 33.3665 107.914 33.0801C108.083 32.7871 108.207 32.4486 108.285 32.0645C108.37 31.6803 108.412 31.2669 108.412 30.8242V30.6191C108.412 30.1895 108.37 29.7858 108.285 29.4082C108.207 29.0241 108.08 28.6855 107.904 28.3926C107.735 28.0931 107.51 27.8587 107.23 27.6895C106.95 27.5202 106.612 27.4355 106.215 27.4355C105.817 27.4355 105.479 27.5202 105.199 27.6895C104.926 27.8587 104.701 28.0931 104.525 28.3926C104.356 28.6855 104.232 29.0241 104.154 29.4082C104.076 29.7858 104.037 30.1895 104.037 30.6191ZM112.513 30.8242V30.6191C112.513 29.8444 112.624 29.1315 112.845 28.4805C113.067 27.8229 113.389 27.2533 113.812 26.7715C114.235 26.2897 114.756 25.9154 115.375 25.6484C115.993 25.375 116.703 25.2383 117.504 25.2383C118.304 25.2383 119.017 25.375 119.642 25.6484C120.267 25.9154 120.791 26.2897 121.215 26.7715C121.644 27.2533 121.97 27.8229 122.191 28.4805C122.413 29.1315 122.523 29.8444 122.523 30.6191V30.8242C122.523 31.5924 122.413 32.3053 122.191 32.9629C121.97 33.6139 121.644 34.1836 121.215 34.6719C120.791 35.1536 120.271 35.528 119.652 35.7949C119.034 36.0618 118.324 36.1953 117.523 36.1953C116.722 36.1953 116.01 36.0618 115.385 35.7949C114.766 35.528 114.242 35.1536 113.812 34.6719C113.389 34.1836 113.067 33.6139 112.845 32.9629C112.624 32.3053 112.513 31.5924 112.513 30.8242ZM115.326 30.6191V30.8242C115.326 31.2669 115.365 31.6803 115.443 32.0645C115.521 32.4486 115.645 32.7871 115.814 33.0801C115.99 33.3665 116.218 33.5911 116.498 33.7539C116.778 33.9167 117.12 33.998 117.523 33.998C117.914 33.998 118.249 33.9167 118.529 33.7539C118.809 33.5911 119.034 33.3665 119.203 33.0801C119.372 32.7871 119.496 32.4486 119.574 32.0645C119.659 31.6803 119.701 31.2669 119.701 30.8242V30.6191C119.701 30.1895 119.659 29.7858 119.574 29.4082C119.496 29.0241 119.369 28.6855 119.193 28.3926C119.024 28.0931 118.799 27.8587 118.519 27.6895C118.239 27.5202 117.901 27.4355 117.504 27.4355C117.107 27.4355 116.768 27.5202 116.488 27.6895C116.215 27.8587 115.99 28.0931 115.814 28.3926C115.645 28.6855 115.521 29.0241 115.443 29.4082C115.365 29.7858 115.326 30.1895 115.326 30.6191ZM130.941 25.4336H133.49V35.6484C133.49 36.612 133.275 37.429 132.845 38.0996C132.422 38.7767 131.83 39.2878 131.068 39.6328C130.306 39.9844 129.421 40.1602 128.412 40.1602C127.969 40.1602 127.5 40.1016 127.006 39.9844C126.517 39.8672 126.049 39.6849 125.599 39.4375C125.157 39.1901 124.786 38.8776 124.486 38.5L125.726 36.8398C126.052 37.2174 126.429 37.5104 126.859 37.7188C127.289 37.9336 127.764 38.041 128.285 38.041C128.793 38.041 129.222 37.9466 129.574 37.7578C129.926 37.5755 130.196 37.3053 130.385 36.9473C130.573 36.5957 130.668 36.1693 130.668 35.668V27.875L130.941 25.4336ZM123.832 30.8438V30.6387C123.832 29.8314 123.929 29.099 124.125 28.4414C124.327 27.7773 124.61 27.2077 124.974 26.7324C125.345 26.2572 125.795 25.8893 126.322 25.6289C126.849 25.3685 127.445 25.2383 128.109 25.2383C128.812 25.2383 129.401 25.3685 129.877 25.6289C130.352 25.8893 130.743 26.2604 131.049 26.7422C131.355 27.2174 131.592 27.7806 131.761 28.4316C131.937 29.0762 132.074 29.7826 132.172 30.5508V31C132.074 31.7357 131.927 32.4193 131.732 33.0508C131.537 33.6823 131.28 34.2357 130.961 34.7109C130.642 35.1797 130.245 35.5443 129.769 35.8047C129.301 36.0651 128.741 36.1953 128.09 36.1953C127.439 36.1953 126.849 36.0618 126.322 35.7949C125.801 35.528 125.355 35.1536 124.984 34.6719C124.613 34.1901 124.327 33.6237 124.125 32.9727C123.929 32.3216 123.832 31.612 123.832 30.8438ZM126.644 30.6387V30.8438C126.644 31.2799 126.687 31.6868 126.771 32.0645C126.856 32.4421 126.986 32.7773 127.162 33.0703C127.344 33.3568 127.569 33.5814 127.836 33.7441C128.109 33.9004 128.431 33.9785 128.802 33.9785C129.317 33.9785 129.737 33.8711 130.062 33.6562C130.388 33.4349 130.632 33.1322 130.795 32.748C130.957 32.3639 131.052 31.9212 131.078 31.4199V30.1406C131.065 29.7305 131.01 29.3626 130.912 29.0371C130.814 28.7051 130.677 28.4219 130.502 28.1875C130.326 27.9531 130.098 27.7708 129.818 27.6406C129.538 27.5104 129.206 27.4453 128.822 27.4453C128.451 27.4453 128.129 27.5299 127.855 27.6992C127.588 27.862 127.364 28.0866 127.181 28.373C127.006 28.6595 126.872 28.998 126.781 29.3887C126.69 29.7728 126.644 30.1895 126.644 30.6387ZM138.646 21V36H135.824V21H138.646ZM145.834 36.1953C145.013 36.1953 144.278 36.0651 143.627 35.8047C142.976 35.5378 142.422 35.1699 141.967 34.7012C141.517 34.2324 141.172 33.6888 140.931 33.0703C140.691 32.4453 140.57 31.7812 140.57 31.0781V30.6875C140.57 29.8867 140.684 29.1543 140.912 28.4902C141.14 27.8262 141.465 27.25 141.888 26.7617C142.318 26.2734 142.839 25.8991 143.451 25.6387C144.063 25.3717 144.753 25.2383 145.521 25.2383C146.27 25.2383 146.934 25.362 147.513 25.6094C148.093 25.8568 148.578 26.2083 148.969 26.6641C149.366 27.1198 149.665 27.6667 149.867 28.3047C150.069 28.9362 150.17 29.6393 150.17 30.4141V31.5859H141.771V29.7109H147.406V29.4961C147.406 29.1055 147.334 28.7572 147.191 28.4512C147.054 28.1387 146.846 27.8913 146.566 27.709C146.286 27.5267 145.928 27.4355 145.492 27.4355C145.121 27.4355 144.802 27.5169 144.535 27.6797C144.268 27.8424 144.05 28.0703 143.881 28.3633C143.718 28.6562 143.594 29.0013 143.51 29.3984C143.431 29.7891 143.392 30.2188 143.392 30.6875V31.0781C143.392 31.5013 143.451 31.8919 143.568 32.25C143.692 32.6081 143.864 32.9173 144.086 33.1777C144.314 33.4382 144.587 33.64 144.906 33.7832C145.232 33.9264 145.599 33.998 146.01 33.998C146.517 33.998 146.989 33.9004 147.426 33.7051C147.868 33.5033 148.249 33.2005 148.568 32.7969L149.935 34.2812C149.714 34.6003 149.411 34.9062 149.027 35.1992C148.649 35.4922 148.194 35.7331 147.66 35.9219C147.126 36.1042 146.517 36.1953 145.834 36.1953ZM162.465 30.9316H158.842V28.6465H162.465C163.024 28.6465 163.48 28.5553 163.832 28.373C164.183 28.1842 164.441 27.9238 164.603 27.5918C164.766 27.2598 164.847 26.8854 164.847 26.4688C164.847 26.0456 164.766 25.6517 164.603 25.2871C164.441 24.9225 164.183 24.6296 163.832 24.4082C163.48 24.1868 163.024 24.0762 162.465 24.0762H159.857V36H156.927V21.7812H162.465C163.578 21.7812 164.532 21.9831 165.326 22.3867C166.127 22.7839 166.739 23.334 167.162 24.0371C167.585 24.7402 167.797 25.5443 167.797 26.4492C167.797 27.3672 167.585 28.1615 167.162 28.832C166.739 29.5026 166.127 30.0202 165.326 30.3848C164.532 30.7493 163.578 30.9316 162.465 30.9316ZM172.611 21V36H169.789V21H172.611ZM180.638 33.6172V28.9102C180.638 28.5716 180.583 28.2819 180.472 28.041C180.362 27.7936 180.189 27.6016 179.955 27.4648C179.727 27.3281 179.431 27.2598 179.066 27.2598C178.754 27.2598 178.483 27.3151 178.256 27.4258C178.028 27.5299 177.852 27.6829 177.728 27.8848C177.605 28.0801 177.543 28.3112 177.543 28.5781H174.73C174.73 28.1289 174.834 27.7025 175.043 27.2988C175.251 26.8952 175.554 26.5404 175.951 26.2344C176.348 25.9219 176.82 25.6777 177.367 25.502C177.92 25.3262 178.539 25.2383 179.222 25.2383C180.043 25.2383 180.772 25.375 181.41 25.6484C182.048 25.9219 182.549 26.332 182.914 26.8789C183.285 27.4258 183.47 28.1094 183.47 28.9297V33.4512C183.47 34.0306 183.506 34.5059 183.578 34.877C183.649 35.2415 183.754 35.5605 183.89 35.834V36H181.049C180.912 35.7135 180.808 35.3555 180.736 34.9258C180.671 34.4896 180.638 34.0534 180.638 33.6172ZM181.01 29.5645L181.029 31.1562H179.457C179.086 31.1562 178.763 31.1986 178.49 31.2832C178.217 31.3678 177.992 31.4883 177.816 31.6445C177.64 31.7943 177.51 31.9701 177.426 32.1719C177.347 32.3737 177.308 32.5951 177.308 32.8359C177.308 33.0768 177.364 33.2949 177.474 33.4902C177.585 33.679 177.745 33.8288 177.953 33.9395C178.161 34.0436 178.405 34.0957 178.685 34.0957C179.108 34.0957 179.476 34.0111 179.789 33.8418C180.101 33.6725 180.342 33.4642 180.511 33.2168C180.687 32.9694 180.778 32.735 180.785 32.5137L181.527 33.7051C181.423 33.972 181.28 34.2487 181.097 34.5352C180.922 34.8216 180.697 35.0918 180.424 35.3457C180.15 35.5931 179.821 35.7982 179.437 35.9609C179.053 36.1172 178.597 36.1953 178.07 36.1953C177.399 36.1953 176.791 36.0618 176.244 35.7949C175.704 35.5215 175.274 35.1471 174.955 34.6719C174.642 34.1901 174.486 33.6432 174.486 33.0312C174.486 32.4779 174.59 31.9863 174.799 31.5566C175.007 31.127 175.313 30.7656 175.717 30.4727C176.127 30.1732 176.638 29.9486 177.25 29.7988C177.862 29.6426 178.571 29.5645 179.379 29.5645H181.01ZM188.617 34.8086L191.42 25.4336H194.437L190.189 37.5918C190.098 37.8587 189.974 38.1452 189.818 38.4512C189.668 38.7572 189.463 39.0469 189.203 39.3203C188.949 39.6003 188.627 39.8281 188.236 40.0039C187.852 40.1797 187.38 40.2676 186.82 40.2676C186.553 40.2676 186.335 40.2513 186.166 40.2188C185.997 40.1862 185.795 40.1406 185.56 40.082V38.0215C185.632 38.0215 185.707 38.0215 185.785 38.0215C185.863 38.028 185.938 38.0312 186.01 38.0312C186.381 38.0312 186.683 37.9889 186.918 37.9043C187.152 37.8197 187.341 37.6895 187.484 37.5137C187.627 37.3444 187.741 37.123 187.826 36.8496L188.617 34.8086ZM187.445 25.4336L189.74 33.0898L190.14 36.0684L188.226 36.2734L184.427 25.4336H187.445Z" fill="#181818"/>
<g clip-path="url(#clip0_131_3151)">
<path d="M59.5184 22.2556L46.1199 36.2932C46.2703 36.8264 46.5407 37.3182 46.9104 37.7309C47.28 38.1436 47.7391 38.4663 48.2526 38.6744C48.7661 38.8825 49.3204 38.9704 49.873 38.9315C50.4257 38.8925 50.9622 38.7277 51.4414 38.4496L66.5172 29.8635L59.5184 22.2556Z" fill="#EA4335"/>
<path d="M73.0666 19.8694L66.5473 16.1353L59.209 22.5748L66.5771 29.8432L73.0468 26.1491C73.6199 25.849 74.1 25.3977 74.4349 24.8443C74.7699 24.2908 74.947 23.6562 74.947 23.0092C74.947 22.3623 74.7699 21.7276 74.4349 21.1742C74.1 20.6207 73.6199 20.1694 73.0468 19.8693H73.0668L73.0666 19.8694Z" fill="#FBBC04"/>
<path d="M46.1199 9.65576C46.0389 9.95516 45.9986 10.2641 46 10.5743V35.3745C46.0009 35.6845 46.0412 35.9932 46.1199 36.2931L59.9777 22.615L46.1199 9.65576Z" fill="#4285F4"/>
<path d="M59.6182 22.9745L66.5472 16.1354L51.4913 7.50918C50.9249 7.17743 50.2806 7.00174 49.6242 7.00001C47.9951 6.99684 46.5629 8.07806 46.1199 9.64583L59.6182 22.9745Z" fill="#34A853"/>
</g>
<defs>
<clipPath id="clip0_131_3151">
<rect width="28.947" height="32" fill="white" transform="translate(46 7)"/>
</clipPath>
</defs>
</svg>
