<svg width="228" height="228" viewBox="0 0 228 228" fill="none" xmlns="http://www.w3.org/2000/svg">
<circle cx="114" cy="114" r="114" fill="#181818"/>
<path d="M104.705 108.004C103.808 107.897 102.891 107.854 102.165 108.625C101.44 109.396 100.543 110.852 100.501 111.708C100.436 112.565 100.543 114.021 100.885 114.492C101.205 114.985 103.04 118.496 105.58 118.496C108.119 118.496 109.272 116.955 109.421 115.905C109.549 114.835 109.506 113.828 109.229 112.629C108.93 111.43 108.269 110.081 107.692 109.289C107.137 108.561 106.732 107.961 106.198 107.768C105.665 107.576 104.619 107.619 104.662 107.811C104.705 108.004 104.705 108.004 104.705 108.004Z" fill="#FFBC9F"/>
<path d="M108.781 111.259C108.653 110.916 107.82 109.974 106.967 109.781C106.028 109.567 105.964 110.274 105.964 110.274C105.964 110.509 106.54 110.702 107.308 111.173C108.461 111.901 109.698 113.914 109.272 116.141C109.272 116.141 109.741 114.899 109.357 113.207C108.973 111.494 108.781 111.259 108.781 111.259Z" fill="#FFCCA9"/>
<path d="M109.25 116.526L109.015 116.312L109.058 116.098C109.485 113.914 108.226 112.008 107.201 111.366C106.945 111.195 106.71 111.066 106.518 110.959C106.049 110.702 105.75 110.552 105.75 110.274V110.252C105.75 110.21 105.75 109.995 106.049 109.803C106.284 109.631 106.625 109.567 106.988 109.717C108.524 110.424 108.802 111.366 108.802 111.366L108.716 111.173C108.61 110.895 107.713 110.167 106.924 109.995C106.668 109.931 106.454 109.953 106.326 110.038C106.22 110.103 106.177 110.231 106.177 110.274C106.22 110.317 106.497 110.488 106.71 110.595C106.924 110.723 107.159 110.831 107.415 111.002C108.546 111.708 109.869 113.143 109.463 116.184L109.25 116.526Z" fill="#F09880"/>
<path d="M109.25 114.899C109.25 114.899 109.293 117.105 106.583 117.126C102.378 117.169 103.296 106.783 106.561 108.432C107.372 108.839 107.543 109.032 108.076 109.867C108.076 109.867 107.522 108.968 106.945 108.24C106.497 107.683 105.9 107.169 105.131 106.912C104.363 106.676 103.232 106.762 103.232 106.762L102.592 108.282L101.439 109.824L100.863 111.516L100.906 113.336C100.906 113.336 101.141 114.835 101.482 115.22C101.824 115.606 102.208 116.227 102.25 116.334C102.293 116.398 102.997 117.147 103.403 117.576C103.339 117.554 103.275 117.554 103.275 117.554C103.83 118.175 106.049 119.203 108.098 117.854C110.146 116.484 109.25 114.899 109.25 114.899Z" fill="#F09880"/>
<path d="M101.824 80.2525C102.464 80.0598 107.436 77.9828 109.762 79.9742C112.089 81.987 112.793 86.9977 104.598 89.3745C103.531 89.6957 102.592 89.9527 101.781 90.1668" fill="#FFBC9F"/>
<path d="M111.299 82.8649C111.271 82.922 111.256 82.9791 111.256 83.0362C111.192 83.8499 111.576 84.6636 109.208 86.2267C106.839 87.7899 105.11 87.897 104.683 86.7192C104.683 86.705 104.676 86.6907 104.662 86.6764C103.872 84.1068 103.574 80.3381 103.915 79.5673C102.869 79.8456 102.058 80.1668 101.824 80.2525L101.781 89.9526C102.037 89.974 102.336 89.974 102.571 89.9526C102.784 89.8955 103.005 89.8384 103.232 89.7813C103.424 89.6957 103.702 89.61 104.022 89.5244C104.022 89.5386 104.029 89.5386 104.043 89.5244C104.043 89.5244 104.05 89.5172 104.064 89.5029C104.093 89.5029 104.121 89.4958 104.15 89.4815C104.178 89.4815 104.221 89.4815 104.278 89.4815C104.377 89.453 104.484 89.4173 104.598 89.3745C109.997 87.8113 111.534 85.1133 111.299 82.8649Z" fill="#F09880"/>
<path d="M100.586 93.6357C102.763 92.6936 106.028 91.837 109.186 92.9719C112.686 94.2353 112.985 98.1967 112.537 99.2888C111.747 101.109 110.253 102.586 103.531 103.336C96.7873 104.085 94.8026 103.657 94.8026 103.657" fill="#FFBC9F"/>
<path d="M112.537 99.2888C112.643 98.9891 112.729 98.518 112.686 97.9184C112.75 100.06 109.805 101.023 106.945 101.387C104.064 101.73 104 100.445 103.83 98.2824C103.723 96.3552 103.744 93.1647 105.857 92.4366C105.857 92.4366 105.843 92.4366 105.814 92.4366C104.811 92.4581 103.83 92.6079 102.933 92.8435C102.876 92.8578 102.819 92.872 102.763 92.8863C101.205 93.4216 100.842 94.9206 100.842 94.9206L101.141 103.379H102.571C102.571 103.379 102.656 103.422 103.125 103.379C103.253 103.364 103.389 103.35 103.531 103.336C110.253 102.586 111.747 101.109 112.537 99.2888Z" fill="#F09880"/>
<path d="M58.5445 159.631C58.6512 159.631 58.8006 159.567 58.95 159.417C59.014 159.331 59.0994 159.267 59.1634 159.181C59.2061 159.138 59.2416 159.088 59.2701 159.031C59.3981 158.71 59.2061 158.325 58.8646 158.218C58.6654 158.146 58.4591 158.089 58.2457 158.046C58.075 158.004 57.9043 158.046 57.7549 158.153C57.698 158.196 57.6482 158.246 57.6055 158.303C57.5415 158.389 57.4561 158.389 57.3708 158.368C56.6167 158.082 56.1117 157.561 55.8556 156.804C55.8556 156.762 55.8556 156.719 55.8983 156.697C55.9552 156.64 56.005 156.583 56.0476 156.526C56.2041 156.369 56.2539 156.183 56.197 155.969C56.1544 155.784 56.1046 155.591 56.0476 155.391C56.005 155.22 55.8769 155.091 55.7275 155.006C55.4928 154.877 55.2154 154.92 55.0233 155.113C54.9379 155.198 54.8455 155.284 54.7459 155.37C54.6818 155.455 54.6392 155.562 54.6392 155.669C54.6392 155.812 54.6463 155.962 54.6605 156.119C54.7672 156.976 55.1087 157.747 55.7062 158.389C56.4531 159.181 57.3708 159.567 58.5445 159.631Z" fill="white"/>
<path d="M58.5445 159.631C57.3708 159.567 56.4531 159.181 55.7062 158.389C55.1087 157.747 54.7672 156.976 54.6605 156.119C54.6463 155.962 54.6392 155.812 54.6392 155.669C54.6392 155.555 54.6747 155.455 54.7459 155.37C54.8526 155.284 54.9379 155.198 55.0233 155.113C55.2154 154.92 55.4928 154.877 55.7275 155.006C55.8769 155.091 56.005 155.22 56.0476 155.391C56.1046 155.591 56.1544 155.784 56.197 155.969C56.2539 156.183 56.2041 156.369 56.0476 156.526C56.005 156.583 55.9552 156.64 55.8983 156.697C55.8556 156.719 55.8556 156.762 55.8556 156.804C56.1117 157.561 56.6167 158.082 57.3708 158.368C57.4561 158.389 57.5415 158.389 57.6055 158.303C57.6482 158.246 57.698 158.196 57.7549 158.153C57.9043 158.046 58.075 158.004 58.2457 158.046C58.4591 158.089 58.6654 158.146 58.8646 158.218C59.2061 158.325 59.3981 158.71 59.2701 159.031C59.2274 159.096 59.0353 159.331 58.95 159.438C58.8006 159.588 58.6512 159.631 58.5445 159.631Z" fill="white"/>
<path d="M102.699 106.869C102.08 106.848 102.122 106.569 101.845 106.848C101.567 107.126 101.503 107.768 101.375 108.09C101.269 108.411 101.333 108.689 101.29 109.01C101.247 109.331 101.269 109.524 101.482 109.503C101.696 109.46 101.888 109.331 101.994 109.203C102.08 109.075 102.357 108.668 102.4 108.582C102.421 108.496 102.613 108.154 102.784 108.025C102.933 107.875 103.467 107.576 103.381 107.319C103.296 107.083 103.552 106.976 103.232 106.869C102.912 106.762 102.699 106.869 102.699 106.869Z" fill="#DD996B"/>
<path d="M101.76 121.409C102.016 121.43 102.848 121.494 103.061 121.644C103.275 121.794 103.68 121.944 103.68 122.158C103.68 122.372 103.744 122.458 103.638 122.736C103.552 123.015 103.595 123.143 103.36 123.421C103.104 123.721 103.36 123.657 102.805 124.278C102.272 124.877 102.272 125.07 101.994 125.434C101.696 125.82 101.418 125.991 101.354 125.927C101.29 125.862 100.629 125.327 100.543 125.092C100.436 124.856 100.5 124.085 100.5 123.807C100.5 123.528 100.436 122.608 100.629 122.394C100.821 122.179 101.76 121.409 101.76 121.409Z" fill="#DD996B"/>
<path d="M26 153.228C26.3201 152.286 34.6643 136.89 35.1552 136.119C35.6247 135.348 37.5453 132.65 37.5453 132.65L37.8441 131.301C37.8441 131.301 38.3136 123.892 38.5057 122.822C38.6977 121.773 38.8044 120.316 39.5727 116.955C40.341 113.593 41.8135 109.246 42.0696 108.389C42.3043 107.511 43.2647 103.914 43.4567 103.379C43.6488 102.843 44.2677 101.302 44.5664 100.938C44.8439 100.552 45.7615 98.8177 46.5725 96.3123C47.3834 93.807 47.5755 92.3509 48.1517 90.7663C48.7279 89.1818 49.2614 87.6829 49.8376 86.4837C50.4138 85.2846 51.6942 84.321 52.3345 83.4645C52.9533 82.5865 53.9564 81.4302 54.3832 80.8949C54.8313 80.381 55.3008 79.8457 55.5356 79.2675C55.7917 78.6893 56.1545 76.9549 56.88 75.4131C57.6056 73.8714 57.7763 73.0577 57.9898 72.8222C58.2458 72.5224 59.2915 72.3297 60.1025 72.6294C60.4439 72.7579 61.575 73.2504 62.1512 75.3275C62.7274 77.3832 63.0689 84.2139 62.45 86.4409C61.8311 88.6464 61.447 90.8092 60.572 91.7728C59.7184 92.7363 59.0995 93.0361 58.9928 93.186C58.9074 93.3145 58.9928 94.2781 58.9928 94.2781C58.9928 94.2781 59.2275 97.1689 58.9074 98.8605C58.9074 98.8605 58.5233 100.638 58.4593 100.831C58.4593 100.831 59.2915 100.402 59.7184 100.102C60.1452 99.8241 61.575 98.7534 61.8311 98.6678C62.0658 98.5607 62.3433 98.2823 62.5994 98.2395C62.8341 98.1753 80.6323 105.22 80.9097 106.762C81.2085 108.282 82.6383 111.28 83.7053 114.942C84.751 118.582 85.5193 123.4 85.1352 125.627C84.751 127.832 84.1748 130.809 84.1748 130.809L83.3212 134.578C83.3212 134.578 81.678 137.404 81.5499 137.704C81.4005 137.982 80.867 138.325 80.7176 138.625C80.5896 138.903 78.05 141.837 76.7909 142.8C75.5532 143.764 74.8703 144.642 74.5288 144.92C74.2087 145.22 72.3734 146.376 70.7088 147.233C69.0229 148.089 68.212 148.582 67.1876 149.31C66.1846 150.016 65.4804 150.273 64.7975 151.28C64.1359 152.286 62.45 152.907 62.1085 153.785C61.7671 154.642 61.5323 155.691 61.2335 156.526C60.9561 157.34 54.8953 173.421 54.7246 173.656C54.5539 173.892 26 153.228 26 153.228Z" fill="#FFBC9F"/>
<path d="M62.5993 98.2396C62.3432 98.2824 62.0657 98.5608 61.831 98.6678C61.5749 98.7535 60.1451 99.8242 59.7183 100.103C59.2914 100.402 58.4592 100.831 58.4592 100.831C58.5232 100.638 58.9073 98.8606 58.9073 98.8606C59.2274 97.1689 58.9927 94.2782 58.9927 94.2782C58.9927 94.2782 58.9073 93.3146 58.9927 93.1861C59.0994 93.0362 59.7183 92.7364 60.5719 91.7728C61.4469 90.8092 61.831 88.6465 62.4499 86.441C63.0688 84.214 62.7273 77.3832 62.1511 75.3276C62.1511 75.3133 62.1511 75.3062 62.1511 75.3062C61.7243 75.6488 61.4682 76.8479 61.4895 79.3746C61.5962 90.1668 56.0903 92.6508 56.0903 92.6508L57.8189 93.4216C59.1207 96.9762 57.3921 100.98 57.3921 100.98C58.9073 101.858 59.9317 103.336 60.5505 105.905C60.5505 105.905 63.4529 101.794 65.1175 99.1603C63.6236 98.5822 62.6419 98.2182 62.5993 98.2396Z" fill="#F09880"/>
<path d="M73.1417 103.293C72.7575 102.329 68.4467 97.4044 68.4467 97.4044C68.4467 97.4044 64.9042 97.9397 64.1786 98.0682C63.453 98.1753 61.3616 98.8819 60.8708 99.2459C60.0385 99.8455 58.4806 100.831 58.4806 100.831C59.3342 101.516 61.4043 104.492 61.703 120.381C61.9805 136.269 64.392 135.777 65.2456 136.076C66.1206 136.355 63.4743 136.783 65.0962 137.426C68.34 138.71 76.2361 140.252 76.3428 143.721C76.3428 143.721 79.3305 140.787 80.4402 139.117C81.0377 138.411 81.5499 137.747 81.7847 137.276C82.5529 135.734 73.5258 104.257 73.1417 103.293Z" fill="#F09880"/>
<path d="M58.8646 93.6572C58.3524 93.7642 54.8739 92.1797 54.255 91.8799C54.5111 91.9655 58.3524 93.1647 58.7366 93.0576L58.8646 93.6572Z" fill="#F09880"/>
<g style="mix-blend-mode:multiply" opacity="0.3">
<path d="M102.272 121.73C102.08 122.094 101.717 122.393 101.418 122.629V124.428C101.525 124.47 101.632 124.47 101.696 124.492C101.824 124.535 102.037 124.492 102.272 124.385V121.73Z" fill="#BBB9C6"/>
</g>
<g style="mix-blend-mode:multiply" opacity="0.3">
<path d="M102.272 107.362C102.08 107.726 101.717 108.004 101.418 108.261V110.06C101.525 110.081 101.632 110.102 101.696 110.124C101.824 110.145 102.037 110.102 102.272 110.017V107.362Z" fill="#BBB9C6"/>
</g>
<path d="M100.244 112.651C100.308 113.786 100.415 117.426 102.08 118.903V116.141L100.244 112.651Z" fill="#9896AA"/>
<path opacity="0.5" d="M100.244 126.226C100.308 127.383 100.415 131.023 102.08 132.5V129.738L100.244 126.226Z" fill="#9896AA"/>
<path d="M106.113 123.593C106.689 124.171 107.671 124.471 107.927 125.241C108.695 127.447 107.201 129.032 106.817 129.524C106.433 129.995 105.729 130.531 105.153 130.809C104.577 131.109 103.467 131.152 103.083 131.066C102.699 130.959 101.503 130.68 101.205 130.145C100.927 129.61 100.693 127.49 100.5 126.869C100.308 126.248 101.397 123.935 101.696 123.743C101.973 123.55 104.811 122.501 104.811 122.501L106.113 123.593Z" fill="#FFBC9F"/>
<path d="M81.4859 137.297C80.3761 138.946 79.5439 139.717 78.0927 141.194C78.114 141.13 78.1354 141.066 78.1354 141.023C78.1354 140.787 77.5592 140.295 77.3458 140.081C77.1323 139.867 72.0959 138.71 72.0959 138.71C73.8459 139.289 74.5501 140.081 74.6141 140.98C73.8245 139.717 71.1996 139.396 71.1996 139.396C74.0806 140.359 75.2117 141.794 73.099 143.85C71.5624 145.456 69.2363 146.997 67.7638 147.939C65.2242 149.417 62.7487 152.158 61.9164 153.721C61.4469 154.642 60.636 156.505 60.6146 158.196C60.6146 158.196 61.5323 155.07 63.0261 153.485C64.712 151.665 66.0352 150.894 67.529 150.209C68.468 149.781 71.3917 148.582 74.3794 146.248C77.3244 143.935 79.0103 142.436 80.9097 139.61C81.4859 138.925 82.0407 137.961 82.5529 137.19L81.4859 137.297Z" fill="#F09880"/>
<path d="M100.927 124.856C101.247 124.214 102.037 123.935 102.357 123.721C102.741 123.464 103.339 122.993 104.043 122.886C104.534 122.822 105.345 122.929 105.878 123.443C105.878 123.443 105.089 122.18 104.384 121.965C103.83 121.794 103.36 121.73 102.933 121.73C102.506 121.73 102.656 121.601 102.4 121.58L102.272 121.923V122.865C102.272 122.865 101.738 123.55 101.631 123.593C101.546 123.657 100.927 124.856 100.927 124.856Z" fill="#F09880"/>
<path d="M105.814 130.423C104.747 130.359 103.744 129.524 103.702 126.805C103.659 124.064 103.616 123.079 104.256 122.886C104.769 122.736 103.894 122.158 103.894 122.158C103.894 122.158 103.125 122.094 103.019 122.329C102.912 122.565 102.08 122.651 101.994 123.571C101.93 124.492 101.61 123.743 101.503 125.006C101.354 126.269 101.525 125.82 101.631 126.805C101.738 127.79 101.824 128.068 101.93 128.603C102.016 129.16 101.696 129.417 102.314 130.017C102.912 130.616 102.805 131.087 103.147 131.109C103.979 131.152 104.662 131.002 104.961 130.895C105.451 130.68 105.814 130.423 105.814 130.423Z" fill="#F09880"/>
<path d="M65.9925 137.297C63.6237 137.297 61.703 135.37 61.703 132.993V58.7111C61.703 56.3343 63.6237 54.4071 65.9925 54.4071H98.7719C101.141 54.4071 103.061 56.3343 103.061 58.7111V132.993C103.061 135.37 101.141 137.297 98.7719 137.297H65.9925Z" fill="#353E45"/>
<path d="M103.581 132.993V58.711C103.581 56.0531 101.423 53.8858 98.7719 53.8858H65.9925C63.3419 53.8858 61.1829 56.0531 61.1829 58.711V132.993C61.1829 135.651 63.3419 137.818 65.9925 137.818H98.7719C101.423 137.818 103.581 135.651 103.581 132.993ZM62.2232 58.711C62.2232 56.6367 63.9269 54.9282 65.9925 54.9282H98.7719C100.838 54.9282 102.541 56.6367 102.541 58.711V132.993C102.541 135.067 100.838 136.776 98.7719 136.776H65.9925C63.9269 136.776 62.2232 135.067 62.2232 132.993V58.711Z" fill="#687C87" stroke="black" stroke-width="0.4"/>
<path d="M100.386 122.929C100.386 123.416 99.9864 123.8 99.5187 123.8H65.2668C64.7752 123.8 64.3785 123.414 64.3785 122.929V65.9702C64.3785 65.4856 64.7752 65.0995 65.2668 65.0995H99.5187C99.9864 65.0995 100.386 65.483 100.386 65.9702V122.929Z" fill="#FD9321" stroke="black" stroke-width="0.4"/>
<path d="M77.2817 60.0173H87.4826H77.2817Z" fill="#D9D9D9"/>
<path d="M77.2817 60.0173H87.4826" stroke="#2B2B27" stroke-width="1.3062" stroke-miterlimit="10" stroke-linecap="round"/>
<path d="M79.8506 130.124C79.8506 128.734 80.9792 127.583 82.3822 127.583C83.7853 127.583 84.9139 128.734 84.9139 130.124C84.9139 131.534 83.7863 132.665 82.3822 132.665C80.9781 132.665 79.8506 131.534 79.8506 130.124Z" fill="#616973" stroke="black" stroke-width="0.4"/>
<path d="M59.6117 105.092C60.1238 107.661 62.6847 118.175 63.9225 127.533C64.4133 131.216 64.9255 135.563 64.9255 139.032C64.9255 139.032 64.9895 141.237 61.9165 139.738C58.2672 137.939 56.3038 139.16 55.7276 136.997C55.1514 134.835 54.1484 130.059 53.7216 128.325C53.2948 126.591 53.2948 120.252 53.2948 119.096C53.2948 117.94 54.2978 114.171 55.3008 113.015C56.3038 111.88 59.6117 105.092 59.6117 105.092Z" fill="#FFBC9F"/>
<path d="M73.0991 143.85C69.3858 147.19 61.4897 147.897 58.2459 154.492C55.0235 161.087 50.4565 170.766 50.4565 170.766C50.4565 170.766 54.682 173.721 54.7247 173.657C54.8954 173.421 60.9775 157.254 61.2763 156.44C61.5537 155.627 61.7671 154.642 62.1086 153.785C62.45 152.907 64.136 152.286 64.7975 151.28C65.4804 150.273 66.1847 150.016 67.1877 149.31C68.212 148.582 69.023 148.089 70.7089 147.233C72.3735 146.376 74.2088 145.22 74.5289 144.92C74.8703 144.642 75.5532 143.764 76.791 142.8C77.2392 142.458 77.8367 141.88 78.4342 141.259C78.797 140.595 79.2025 139.76 79.1598 139.888C78.9464 140.488 76.1508 141.109 73.0991 143.85Z" fill="#F09880"/>
<path d="M97.2293 114.496C97.2293 115.717 96.2263 116.702 95.0312 116.702H69.0595C67.8645 116.702 66.8615 115.717 66.8615 114.496V108.265C66.8615 107.066 67.8645 106.059 69.0595 106.059H95.0312C96.2263 106.059 97.2293 107.066 97.2293 108.265V114.496Z" fill="#95B50F" fill-opacity="0.5"/>
<path d="M97.2293 100.437C97.2293 101.657 96.2263 102.642 95.0312 102.642H69.0595C67.8645 102.642 66.8615 101.657 66.8615 100.437V94.2056C66.8615 93.0064 67.8645 92 69.0595 92H95.0312C96.2263 92 97.2293 93.0064 97.2293 94.2056V100.437Z" fill="#95B50F"/>
<path d="M97.2293 86.4368C97.2293 87.6573 96.2263 88.6423 95.0312 88.6423H69.0595C67.8645 88.6423 66.8615 87.6573 66.8615 86.4368V80.2056C66.8615 79.0064 67.8645 78 69.0595 78H95.0312C96.2263 78 97.2293 79.0064 97.2293 80.2056V86.4368Z" fill="#95B50F" fill-opacity="0.5"/>
<path d="M60.8493 151.108C64.6906 147.597 68.7453 146.312 71.0288 142.971C73.3122 139.61 71.0928 139.46 69.6843 138.967C68.2545 138.475 75.7878 139.117 76.0012 139.181C76.2146 139.246 76.0012 143.464 76.0012 143.464L72.1598 146.954C72.1598 146.954 61.0627 152.093 60.5718 153.036C60.081 153.956 60.8493 151.108 60.8493 151.108Z" fill="#F09880"/>
<path d="M122.268 125.734C121.692 126.312 120.71 126.612 120.433 127.383C119.664 129.567 121.158 131.173 121.542 131.665C121.927 132.136 122.631 132.672 123.207 132.95C123.783 133.25 124.893 133.293 125.277 133.207C125.661 133.1 126.856 132.822 127.155 132.286C127.432 131.751 127.689 129.631 127.859 129.01C128.073 128.389 126.963 126.076 126.664 125.884C126.387 125.691 123.548 124.62 123.548 124.62L122.268 125.734Z" fill="#FFBC9F"/>
<path d="M127.432 126.997C127.112 126.355 126.344 126.077 126.003 125.863C125.619 125.606 125.021 125.134 124.317 125.027C123.826 124.963 123.015 125.07 122.481 125.584C122.481 125.584 123.271 124.321 123.975 124.107C124.53 123.935 125 123.85 125.426 123.85C125.853 123.85 125.704 123.743 125.96 123.721L126.088 124.064V125.006C126.088 125.006 126.622 125.691 126.728 125.734C126.814 125.777 127.432 126.997 127.432 126.997Z" fill="#F09880"/>
<path d="M127.24 96.0339C128.222 96.3551 127.155 96.3765 127.539 97.5114C127.923 98.6249 128.179 100.509 127.838 101.43C127.475 102.329 126.707 103.764 126.152 104.085C125.576 104.428 122.097 107.147 119.515 105.97C116.912 104.792 117.317 102.672 117.658 101.537C118 100.381 118.512 99.3743 119.366 98.2823C120.219 97.1902 121.094 95.6913 122.033 95.1774C122.93 94.6849 123.783 94.3208 124.402 94.1924C125.448 93.9568 127.304 94.2994 127.176 94.4707C127.027 94.642 127.24 96.0339 127.24 96.0339Z" fill="#FFBC9F"/>
<path d="M119.515 105.97C117.957 105.263 117.488 104.214 117.424 103.25C117.915 104.749 119.494 105.841 122.545 104.321C125.704 102.736 124.466 97.854 123.954 96.8476C123.463 95.8412 123.634 94.7919 125.128 94.3636C125.213 94.3422 125.128 94.1923 125.149 94.1067C125.234 94.1067 125.32 94.1067 125.405 94.1067C125.811 95.6698 126.472 101.28 126.664 103.571C126.472 103.807 126.301 104 126.152 104.085C125.576 104.428 122.097 107.147 119.515 105.97Z" fill="#F09880"/>
<path d="M123.442 115.113C124.338 115.006 125.256 114.963 125.981 115.734C126.686 116.505 127.603 117.961 127.646 118.817C127.71 119.695 127.603 121.13 127.262 121.601C126.942 122.094 125.106 125.605 122.567 125.605C120.027 125.605 118.875 124.064 118.725 123.014C118.597 121.944 118.64 120.937 118.918 119.738C119.216 118.539 119.878 117.19 120.454 116.419C121.009 115.67 121.414 115.07 121.948 114.877C122.481 114.685 123.527 114.727 123.484 114.92C123.442 115.113 123.442 115.113 123.442 115.113Z" fill="#FFBC9F"/>
<path d="M118.661 121.837C118.661 121.837 118.853 124.213 121.564 124.235C125.768 124.278 124.85 113.892 121.585 115.541C120.774 115.948 120.603 116.141 120.07 116.976C120.07 116.976 120.603 116.076 121.201 115.348C121.628 114.792 122.353 114.214 123.036 113.785C123.869 113.293 125.597 113.164 125.597 113.164L125.554 115.391L126.707 116.933L127.283 118.625L127.24 120.466C127.24 120.466 127.006 121.944 126.664 122.329C126.323 122.715 126.109 123.421 126.067 123.528C126.045 123.592 125.085 124.663 125.085 124.663C124.317 125.284 122.759 126.333 120.049 124.963C118.384 124.106 118.661 121.837 118.661 121.837Z" fill="#F09880"/>
<path d="M172.44 157.511C173.038 156.89 173.379 156.141 173.486 155.284C173.5 155.141 173.507 154.998 173.507 154.856C173.507 154.749 173.464 154.642 173.4 154.577C173.301 154.492 173.208 154.399 173.123 154.299C172.931 154.128 172.653 154.085 172.419 154.192C172.269 154.278 172.163 154.406 172.099 154.599C172.042 154.784 171.992 154.97 171.949 155.156C171.892 155.355 171.942 155.534 172.099 155.691C172.141 155.748 172.191 155.805 172.248 155.862C172.291 155.884 172.291 155.926 172.291 155.969C172.035 156.712 171.529 157.211 170.775 157.468C170.69 157.511 170.626 157.511 170.541 157.425C170.498 157.368 170.448 157.318 170.391 157.275C170.242 157.168 170.071 157.126 169.9 157.168C169.687 157.211 169.481 157.268 169.282 157.34C168.94 157.425 168.748 157.811 168.897 158.132C168.912 158.189 168.94 158.239 168.983 158.282C169.068 158.367 169.132 158.432 169.218 158.496C169.346 158.646 169.495 158.71 169.623 158.71C170.775 158.646 171.693 158.26 172.44 157.511Z" fill="white"/>
<path d="M125.875 111.173C126.493 111.152 126.451 110.852 126.728 111.152C127.006 111.43 127.07 112.072 127.198 112.393C127.304 112.715 127.262 112.993 127.283 113.314C127.326 113.635 127.304 113.828 127.091 113.785C126.878 113.764 126.686 113.635 126.579 113.507C126.494 113.378 126.216 112.95 126.173 112.886C126.152 112.8 125.96 112.458 125.789 112.308C125.64 112.179 125.106 111.88 125.192 111.623C125.277 111.366 125.021 111.28 125.341 111.173C125.661 111.044 125.875 111.173 125.875 111.173Z" fill="#DD996B"/>
<path d="M120.219 128.432C120.233 128.475 120.241 128.518 120.241 128.56C120.497 130.98 122.46 130.98 123.356 130.787C123.997 130.659 124.466 130.038 124.658 129.074C124.658 129.032 124.658 128.989 124.658 128.946C124.701 126.205 124.743 125.199 124.103 125.027C123.591 124.877 124.466 124.299 124.466 124.299C124.466 124.299 125.234 124.235 125.341 124.471C125.448 124.706 126.28 124.792 126.365 125.713C126.365 125.727 126.365 125.741 126.365 125.755C126.557 125.734 126.728 125.713 126.814 125.691C126.814 125.691 127.753 126.483 127.945 126.698C128.137 126.912 128.073 127.811 128.073 128.111C128.073 128.389 128.137 129.16 128.03 129.396C127.945 129.631 127.283 130.166 127.219 130.231C127.198 130.252 127.091 130.231 126.942 130.124C126.97 130.152 126.984 130.181 126.984 130.209C127.027 130.316 126.792 130.745 126.429 131.28C126.451 131.537 126.429 131.772 126.045 132.158C125.448 132.757 126.856 133.057 126.515 133.143C126.003 133.271 125.341 133.271 124.765 133.25C124.274 133.25 123.612 133.164 123.207 132.95C123.136 132.922 123.058 132.879 122.972 132.822C122.716 132.693 122.567 132.565 122.567 132.565C122.161 132.286 121.777 131.965 121.542 131.665C121.222 131.259 120.134 130.081 120.219 128.432Z" fill="#F09880"/>
<path d="M170.114 104.385C170.114 104.385 169.303 103.978 168.855 103.678C168.428 103.4 166.998 102.372 166.742 102.287C166.507 102.18 166.23 101.901 165.974 101.858C165.739 101.816 147.941 108.646 147.664 110.145C147.365 111.644 145.935 114.556 144.868 118.111C143.822 121.687 143.054 126.376 143.438 128.518C143.822 130.68 144.398 133.593 144.398 133.593L145.252 137.233C145.252 137.233 146.895 139.995 147.045 140.273C147.173 140.573 147.706 140.894 147.856 141.173C147.984 141.451 150.545 144.321 151.782 145.241C153.02 146.183 153.703 147.04 154.044 147.318C154.365 147.597 156.2 148.71 157.864 149.567C159.55 150.402 160.361 150.873 161.386 151.58C162.389 152.286 163.861 151.216 164.544 152.201C165.206 153.186 167.318 154.749 167.617 155.541C167.895 156.355 173.678 173.656 173.849 173.892C174.041 174.106 203 151.023 203 151.023C202.68 150.102 193.695 136.805 193.205 136.055C192.735 135.306 190.814 132.693 190.814 132.693L190.516 131.366C190.516 131.366 189.769 123.379 189.001 120.081C188.232 116.805 186.802 112.565 186.525 111.751C183.367 102.865 171.522 89.2888 164.181 80.6594C157.374 72.6295 131.914 81.3018 131.914 83.5287C131.914 85.7343 133.216 93.6143 134.816 94.8777C136.438 96.141 144.526 99.61 144.526 99.61" fill="#FFBC9F"/>
<path d="M155.005 93.079C152.551 91.7728 153.276 89.1819 151.846 86.1626C150.395 83.1219 153.276 80.8307 154.429 78.668C154.685 78.1969 155.111 77.7473 155.645 77.3618C159.252 77.5759 158.782 80.9806 160.575 83.1862C162.474 85.456 166.956 81.0663 167.318 84.578C167.468 86.1626 167.574 91.0662 169.09 92.6936C173.358 97.276 177.178 101.173 180.187 106.098C178.416 106.655 178.01 105.927 175.961 105.606C173.102 105.177 167.916 99.4173 164.181 96.5265C164.181 96.5265 157.438 94.3638 155.005 93.079Z" fill="#F09880"/>
<path d="M170.114 105.135C170.114 105.135 169.303 104.706 168.855 104.407C168.428 104.128 166.998 103.058 166.742 102.972C166.507 102.865 166.23 102.586 165.974 102.522C165.931 102.522 164.95 102.886 163.456 103.464C165.12 106.098 168.023 110.21 168.023 110.21C168.641 107.64 169.559 106.398 171.053 105.52L170.114 105.135Z" fill="#F09880"/>
<path d="M155.431 106.783C155.816 105.841 160.126 101.066 160.126 101.066C160.126 101.066 163.69 101.58 164.395 101.687C165.12 101.815 167.212 102.501 167.702 102.843C168.535 103.421 171.672 105.07 171.672 105.07C169.623 106.612 172.504 106.805 172.205 123.164C171.906 138.625 157.011 142.308 162.175 146.526C164.651 148.539 152.294 144.299 152.252 146.14C152.252 146.14 149.243 143.293 148.133 141.665C147.535 140.98 147.151 140.252 146.788 139.866C137.527 129.481 155.047 107.725 155.431 106.783Z" fill="#F09880"/>
<g style="mix-blend-mode:multiply" opacity="0.3">
<path d="M126.302 126.034C126.494 126.398 126.856 126.676 127.155 126.933V128.732C127.048 128.753 126.942 128.775 126.878 128.796C126.75 128.839 126.536 128.775 126.302 128.689V126.034Z" fill="#BBB9C6"/>
</g>
<g style="mix-blend-mode:multiply" opacity="0.3">
<path d="M126.302 111.666C126.494 112.008 126.856 112.308 127.155 112.543V114.364C127.048 114.385 126.942 114.406 126.878 114.428C126.75 114.449 126.536 114.406 126.302 114.321V111.666Z" fill="#BBB9C6"/>
</g>
<path d="M128.329 116.933C128.265 118.089 128.158 121.73 126.493 123.207V120.445L128.329 116.933Z" fill="#9896AA"/>
<path opacity="0.5" d="M128.329 130.531C128.265 131.687 128.201 133.7 126.536 135.177L126.493 134.042L128.329 130.531Z" fill="#9896AA"/>
<path d="M147.493 135.305C148.581 136.933 149.029 142.243 150.48 143.699C150.452 143.628 150.438 143.564 150.438 143.507C150.438 143.293 151.014 142.8 151.227 142.586C151.441 142.393 156.477 141.258 156.477 141.258C154.727 141.815 154.023 142.586 153.98 143.464C155.517 143.078 157.565 142.629 157.565 142.629C154.898 143.485 154.642 144.834 155.474 146.269C157.011 147.832 159.337 149.331 160.831 150.252C163.349 151.686 165.824 150.188 166.657 151.708C167.126 152.586 168.599 158.603 168.62 160.23C168.62 160.23 167.19 156.783 165.718 155.241C164.032 153.485 162.538 153.121 161.044 152.457C160.105 152.029 157.672 150.723 154.62 148.539C149.136 144.577 144.654 136.869 144.078 134.941L147.493 135.305Z" fill="#F09880"/>
<path d="M144.163 132.565C146.831 132.094 153.809 130.852 155.09 130.702C156.669 130.53 164.288 133.036 164.288 133.036C163.968 135.841 163.584 137.383 163.434 137.832C160.02 147.019 151.398 145.712 148.218 141.794C146.532 139.481 145.252 137.147 145.017 136.291L144.697 136.869C144.462 135.841 144.377 134.792 144.377 133.7C144.313 133.357 144.249 132.972 144.163 132.565Z" fill="#F09880"/>
<g style="mix-blend-mode:overlay" opacity="0.3">
<path d="M128.158 86.6121L164.63 120.017V102.672L128.158 69.2675V86.6121Z" fill="white"/>
</g>
<path d="M166.614 132.907C166.614 135.091 164.821 136.89 162.645 136.89H129.865C127.689 136.89 125.896 135.091 125.896 132.907V58.6253C125.896 56.4412 127.689 54.6425 129.865 54.6425H162.645C164.821 54.6425 166.614 56.4412 166.614 58.6253V132.907Z" fill="#353E45"/>
<path d="M167.454 132.907V58.6252C167.454 55.9673 165.295 53.8 162.645 53.8H129.865C127.215 53.8 125.056 55.9673 125.056 58.6252V132.907C125.056 135.565 127.215 137.733 129.865 137.733H162.645C165.295 137.733 167.454 135.565 167.454 132.907ZM126.096 58.6252C126.096 56.5509 127.8 54.8424 129.865 54.8424H162.645C164.71 54.8424 166.414 56.5509 166.414 58.6252V132.907C166.414 134.982 164.71 136.69 162.645 136.69H129.865C127.8 136.69 126.096 134.982 126.096 132.907V58.6252Z" fill="#86979E" stroke="black" stroke-width="0.4"/>
<path d="M164.173 122.907C164.173 123.402 163.788 123.799 163.306 123.799H129.054C128.568 123.799 128.166 123.397 128.166 122.907V65.9699C128.166 65.4801 128.568 65.0778 129.054 65.0778H163.306C163.788 65.0778 164.173 65.4749 164.173 65.9699V122.907Z" fill="#FD9321" stroke="black" stroke-width="0.4"/>
<path d="M160.574 102.487H160.575C160.89 102.487 161.143 102.739 161.143 103.057C161.143 103.057 161.143 103.057 161.143 103.057L161.122 120.295V120.295C161.122 120.588 160.873 120.844 160.554 120.844C160.553 120.844 160.553 120.844 160.553 120.844L131.53 120.823H131.53C131.214 120.823 130.962 120.571 130.962 120.252C130.962 120.252 130.962 120.252 130.962 120.252L130.983 103.015V103.015C130.983 102.696 131.236 102.444 131.551 102.444C131.551 102.444 131.551 102.444 131.551 102.444L160.574 102.487Z" fill="#62C3ED" stroke="black" stroke-width="0.4"/>
<path d="M134.091 111.194C133.643 111.194 133.301 110.83 133.301 110.402V106.227C133.301 105.798 133.664 105.434 134.091 105.434H138.252C138.466 105.434 138.658 105.52 138.807 105.67C138.957 105.82 139.042 106.034 139.042 106.248V110.402C139.042 110.852 138.679 111.194 138.231 111.194H134.091Z" fill="#FFE266"/>
<path fill-rule="evenodd" clip-rule="evenodd" d="M138.252 105.284C138.765 105.284 139.191 105.713 139.191 106.248V110.402C139.191 110.937 138.765 111.366 138.231 111.366L134.091 111.344C133.835 111.344 133.6 111.259 133.408 111.066C133.237 110.895 133.131 110.659 133.131 110.402L133.152 106.227C133.152 105.713 133.579 105.284 134.091 105.284H138.252ZM133.472 106.227V110.402C133.472 110.745 133.75 111.023 134.112 111.023L138.252 111.045C138.594 111.045 138.893 110.745 138.893 110.402V106.227C138.893 105.884 138.615 105.606 138.252 105.606L134.112 105.584C133.75 105.584 133.472 105.884 133.472 106.227Z" fill="#4DADCE"/>
<g opacity="0.5">
<path d="M136.865 105.606V107.233V105.606Z" fill="#383639"/>
<path d="M136.865 105.606V107.233" stroke="#E2A02B" stroke-width="0.321197" stroke-miterlimit="10"/>
</g>
<g opacity="0.5">
<path d="M138.892 107.233H133.472H138.892Z" fill="#383639"/>
<path d="M138.892 107.233H133.472" stroke="#E2A02B" stroke-width="0.321197" stroke-miterlimit="10"/>
</g>
<g opacity="0.5">
<path d="M138.892 109.417L133.472 109.396L138.892 109.417Z" fill="#383639"/>
<path d="M138.892 109.417L133.472 109.396" stroke="#E2A02B" stroke-width="0.321197" stroke-miterlimit="10"/>
</g>
<g opacity="0.5">
<path d="M136.865 109.396V111.045V109.396Z" fill="#383639"/>
<path d="M136.865 109.396V111.045" stroke="#E2A02B" stroke-width="0.321197" stroke-miterlimit="10"/>
</g>
<g opacity="0.5">
<path d="M135.478 109.396V111.045V109.396Z" fill="#383639"/>
<path d="M135.478 109.396V111.045" stroke="#E2A02B" stroke-width="0.321197" stroke-miterlimit="10"/>
</g>
<g opacity="0.5">
<path d="M135.478 105.606V107.233V105.606Z" fill="#383639"/>
<path d="M135.478 105.606V107.233" stroke="#E2A02B" stroke-width="0.321197" stroke-miterlimit="10"/>
</g>
<path d="M155.538 107.897C155.538 109.053 154.599 110.017 153.426 110.017C152.252 110.017 151.313 109.053 151.313 107.897C151.313 106.719 152.273 105.777 153.426 105.777C154.599 105.777 155.538 106.719 155.538 107.897Z" fill="#F9ED32"/>
<path d="M158.206 107.897C158.206 109.075 157.246 110.017 156.093 110.017C154.919 110.017 153.98 109.053 153.98 107.897C153.98 106.719 154.919 105.777 156.093 105.777C157.246 105.777 158.206 106.719 158.206 107.897Z" fill="#FBB040"/>
<path d="M153.98 107.897C153.98 108.561 154.279 109.16 154.749 109.546C155.24 109.16 155.538 108.561 155.538 107.897C155.538 107.233 155.24 106.633 154.77 106.248C154.279 106.633 153.98 107.233 153.98 107.897Z" fill="#F7941E"/>
<path fill-rule="evenodd" clip-rule="evenodd" d="M154.77 105.713C155.154 105.477 155.624 105.349 156.093 105.349C157.48 105.349 158.633 106.483 158.633 107.897C158.611 109.289 157.48 110.445 156.072 110.445C155.602 110.445 155.154 110.295 154.749 110.059C154.365 110.295 153.895 110.445 153.426 110.445C152.039 110.445 150.886 109.289 150.886 107.897C150.886 106.483 152.039 105.349 153.426 105.349C153.895 105.349 154.365 105.477 154.77 105.713ZM151.313 107.897C151.313 109.053 152.252 110.017 153.426 110.017C153.938 110.017 154.386 109.824 154.749 109.545C155.112 109.824 155.581 110.017 156.093 110.017C157.246 110.017 158.206 109.074 158.206 107.897C158.206 106.719 157.246 105.777 156.093 105.777C155.581 105.777 155.133 105.948 154.77 106.248C154.407 105.948 153.938 105.777 153.426 105.777C152.273 105.777 151.313 106.719 151.313 107.897Z" fill="black"/>
<path d="M157.893 116.533H152.885V114.656H157.893V116.533Z" fill="white" stroke="black" stroke-width="0.2"/>
<path d="M151.533 116.533H146.526V114.656H151.533V116.533Z" fill="white" stroke="black" stroke-width="0.2"/>
<path d="M145.174 114.656V116.533L140.146 116.512L140.165 114.635L145.174 114.656Z" fill="white" stroke="black" stroke-width="0.2"/>
<path d="M138.813 114.635L138.793 116.512H133.785V114.635H138.813Z" fill="white" stroke="black" stroke-width="0.2"/>
<g opacity="0.5">
<path d="M141.966 118.775L133.579 118.753V117.961H141.966V118.775Z" fill="#44474C"/>
</g>
<g opacity="0.5">
<path d="M146.34 118.775H142.713V117.982H146.34V118.775Z" fill="#44474C"/>
</g>
<path d="M141.155 59.9315H151.356" stroke="#2B2B27" stroke-width="1.3062" stroke-miterlimit="10" stroke-linecap="round"/>
<path d="M143.723 130.038C143.723 128.627 144.851 127.497 146.255 127.497C147.659 127.497 148.787 128.627 148.787 130.038C148.787 131.448 147.659 132.579 146.255 132.579C144.851 132.579 143.723 131.448 143.723 130.038Z" fill="#616973" stroke="black" stroke-width="0.4"/>
<path d="M161.236 95.0061C161.236 96.2266 160.254 97.2116 159.038 97.2116H133.088C131.871 97.2116 130.89 96.2266 130.89 95.0061V88.7749C130.89 87.5543 131.871 86.5693 133.088 86.5693H159.038C160.254 86.5693 161.236 87.5543 161.236 88.7749V95.0061Z" fill="#181818"/>
<path fill-rule="evenodd" clip-rule="evenodd" d="M143.609 90.2738C143.844 90.231 144.164 90.2096 144.633 90.2096C145.081 90.2096 145.402 90.2952 145.636 90.4665C145.85 90.6379 145.978 90.9162 145.978 91.2374C145.978 91.5586 145.871 91.837 145.679 92.0297C145.423 92.2653 145.039 92.3723 144.612 92.3723C144.512 92.3723 144.427 92.3652 144.356 92.3509V93.5286H143.609V90.2738ZM144.356 91.7727C144.42 91.7942 144.505 91.7942 144.612 91.7942C144.996 91.7942 145.252 91.6014 145.252 91.2588C145.252 90.9591 145.039 90.7877 144.655 90.7877C144.505 90.7877 144.42 90.7877 144.356 90.8092V91.7727Z" fill="white"/>
<path fill-rule="evenodd" clip-rule="evenodd" d="M147.621 92.6933L147.386 93.5285H146.618L147.621 90.2308H148.581L149.605 93.5285H148.816L148.56 92.6933H147.621ZM148.453 92.1366L148.24 91.43C148.197 91.2372 148.133 90.9803 148.09 90.7876H148.069C148.026 90.9803 147.983 91.2372 147.919 91.43L147.727 92.1366H148.453Z" fill="white"/>
<path d="M151.035 93.5285V92.1794L149.99 90.2308H150.843L151.185 91.0231C151.291 91.2587 151.355 91.4514 151.441 91.6655C151.526 91.4514 151.59 91.2587 151.697 91.0231L152.017 90.2308H152.871L151.782 92.158V93.5285H151.035Z" fill="white"/>
<path d="M141.027 93.5073C141.027 93.6358 140.92 93.7429 140.77 93.7429H138.124C137.975 93.7429 137.868 93.6358 137.868 93.5073V91.4517C137.868 91.3018 137.975 91.1947 138.124 91.1947H140.77C140.92 91.1947 141.027 91.3018 141.027 91.4517V93.5073Z" fill="white"/>
<path d="M140.621 91.3231H140.13V90.5094C140.13 90.1454 139.832 89.8242 139.447 89.8242C139.063 89.8242 138.765 90.1454 138.765 90.5094H138.274C138.274 89.867 138.807 89.3317 139.447 89.3317C140.088 89.3317 140.621 89.867 140.621 90.5094V91.3231Z" fill="white"/>
<path d="M139.853 92.6294C139.853 92.8435 139.704 92.9934 139.49 92.9934C139.277 92.9934 139.127 92.8435 139.127 92.6294V92.2867C139.127 92.094 139.277 91.9227 139.49 91.9227C139.704 91.9227 139.853 92.094 139.853 92.2867V92.6294Z" fill="#F9615D"/>
<g style="mix-blend-mode:overlay" opacity="0.3">
<path d="M164.288 86.548L127.817 119.952V102.608L164.288 69.2034V86.548Z" fill="white"/>
</g>
<g style="mix-blend-mode:multiply" opacity="0.5">
<path d="M142.862 94.9417C141.709 94.7276 142.136 95.1987 140.963 95.8411C139.405 96.719 139.021 100.274 141.56 102.95C144.292 105.798 149.819 108.432 155.645 109.224C155.645 109.224 158.441 116.633 161.812 121.173C165.184 125.798 163.328 133.421 163.754 137.168C164.181 140.916 169.794 120.595 169.858 120.381C169.922 120.166 169.794 115.049 169.858 114.835C169.922 114.62 169.645 113.25 169.218 112.972C168.791 112.672 161.322 105.691 161.236 105.477C161.172 105.263 159.081 103.314 158.867 103.229C158.654 103.164 156.925 102.8 156.584 102.886C156.221 102.95 142.862 94.9417 142.862 94.9417Z" fill="#4C4C4C"/>
</g>
<path d="M144.036 93.7427C144.036 93.7427 146.554 93.55 148.56 93.5072C149.435 93.4858 150.224 93.3359 150.651 93.4858C150.651 93.4858 150.779 93.4643 150.907 93.4215C152.124 92.9933 158.099 90.959 160.767 91.3016C163.754 91.6656 170.861 97.0832 174.041 98.5607C177.22 100.038 180.379 101.451 183.921 105.349C187.443 109.267 190.409 124.214 189.534 124.856C185.586 127.747 187.72 127.49 181.083 132.179C180.571 134.278 179.781 137.832 179.312 139.588C178.736 141.708 176.772 140.53 173.123 142.265C170.05 143.742 170.114 141.58 170.114 141.58C170.114 138.218 166.635 142.008 167.126 138.432C167.169 138.218 165.398 136.826 165.419 136.612L169.132 116.955C169.004 116.312 167.382 112.051 167.382 112.051C163.392 110.038 158.803 104.835 158.803 104.835C145.337 104.428 140.685 99.3958 140.237 97.4258C139.981 96.2695 139.767 94.9633 140.984 94.1496C141.24 93.9783 143.225 93.7213 144.036 93.7427Z" fill="#FFBC9F"/>
<path d="M140.088 95.4773C140.024 98.4751 141.389 99.7813 146.853 101.494C149.947 102.479 154.791 102.222 157.502 102.094C159.358 102.008 159.55 101.858 160.169 102.715C163.904 108.068 172.163 113.893 172.163 113.893C171.736 119.224 166.059 125.092 166.059 125.092C167.468 119.503 167.212 114.578 167.212 114.578C163.584 111.987 158.803 105.584 158.803 105.584C143.822 105.713 138.7 99.974 140.088 95.4773Z" fill="#F09880"/>
<path d="M155.837 143.014C156.37 143.742 157.117 144.321 157.971 144.856C158.569 143.228 161.556 142.243 161.663 141.387C163.285 128.261 166.273 115.391 167.553 114.77C168.855 114.128 170.007 114.556 170.007 114.556C170.007 121.173 163.178 129.139 172.035 154.706L171.992 154.727C174.894 162.8 177.946 170.894 177.946 170.894C177.946 170.894 173.806 174.063 173.763 173.999C173.592 173.785 166.721 155.22 166.379 154.385C166.038 153.55 165.184 152.736 164.501 151.751C163.84 150.766 162.303 152.393 161.3 151.687C160.297 151.001 159.465 150.53 157.8 149.674C156.114 148.839 154.3 147.704 153.959 147.425C153.618 147.147 152.956 146.312 151.697 145.37C151.27 145.049 150.673 144.47 150.075 143.871C149.691 143.228 149.392 142.672 149.349 142.543C149.243 142.222 153.767 140.295 155.837 143.014Z" fill="#F09880"/>
<path d="M141.09 94.5565C141.09 94.7278 140.706 95.4987 140.77 95.7128C141.219 97.1475 141.453 97.9184 144.91 97.8969C148.368 97.8755 148.88 95.777 149.179 95.0918C149.285 94.8134 149.435 94.5351 149.605 94.2781C149.968 94.2781 150.352 93.8284 150.929 93.8499C150.459 93.9998 150.096 94.064 149.435 95.6057C149.051 96.5265 148.474 98.732 144.846 98.7749C141.24 98.7963 140.877 98.004 140.408 96.5051C140.216 95.8627 140.344 94.9848 141.09 94.5565Z" fill="#F09880"/>
<path d="M140.771 96.0338C140.493 95.0916 141.112 94.5349 141.112 94.5349C141.112 94.5349 145.017 93.657 150.95 93.8497C150.267 93.9781 149.819 94.7276 149.563 95.3486C149.264 96.0766 148.731 98.2394 145.167 98.2608C141.603 98.2822 141.24 97.5113 140.771 96.0338Z" fill="#FFCDBB"/>
<path d="M162.175 106.912C162.538 106.762 163.477 106.762 162.325 105.327C161.172 103.871 159.529 102.072 159.166 100.702C159.166 100.702 158.526 102.65 158.739 103.657C158.953 104.663 161.812 107.554 161.812 107.554L162.175 106.912Z" fill="#F09880"/>
<path d="M150.95 93.8498C150.267 93.9783 149.819 94.7277 149.563 95.3487C149.435 95.6699 149.243 96.2909 148.773 96.869C148.944 96.3979 148.752 95.9269 148.773 95.3915C148.794 94.8562 148.602 94.2352 149.307 93.8284C149.833 93.8284 150.381 93.8355 150.95 93.8498Z" fill="#FFE4DC"/>
<path d="M161.919 138.046C161.919 138.046 161.3 142.457 161.855 146.205C161.855 146.205 155.709 144.813 152.7 139.866C152.7 139.866 153.98 138.453 159.892 138.111C162.239 137.961 161.919 138.046 161.919 138.046Z" fill="#FFBC9F"/>
<path d="M171.01 134.192C169.474 130.209 167.041 128.368 168.663 122.222C170.285 116.098 172.334 114.149 172.632 114.064C172.931 113.957 182.62 133.464 180.486 134.792C178.33 136.119 171.01 134.192 171.01 134.192Z" fill="#FFBC9F"/>
<path d="M167.446 134.492C168.044 140.423 171.928 147.168 176.601 146.141C181.296 145.113 171.01 151.965 171.01 151.965C171.01 151.965 165.312 135.52 165.611 134.792C165.91 134.085 167.446 134.492 167.446 134.492Z" fill="#F09880"/>
<path d="M173.422 147.746C176.73 147.425 177.476 147.104 175.129 149.138C172.782 151.173 180.571 168.838 180.571 168.838L173.763 173.999L165.312 151.387L173.422 147.746Z" fill="#F09880"/>
<path d="M177.263 146.89C175.342 149.031 174.275 151.387 176.089 157.168C177.903 162.95 168.62 149.567 168.62 149.567L177.263 146.89Z" fill="#F09880"/>
<path d="M138.318 71.915V72.636H139.053C139.27 72.636 139.571 72.566 139.571 72.2965C139.571 72.034 139.28 71.915 139.056 71.915C138.808 71.915 138.566 71.915 138.318 71.915ZM138.318 70.9035V71.565H139.056C139.35 71.565 139.497 71.4495 139.497 71.257C139.497 71.0855 139.347 70.9035 139.053 70.9035H138.318ZM137.929 70.55H139.053C139.518 70.55 139.886 70.7635 139.886 71.25C139.886 71.4565 139.777 71.642 139.546 71.7365C139.84 71.824 139.963 72.1145 139.963 72.3C139.963 72.8355 139.536 73 139.053 73C138.671 73 138.311 73 137.929 73V70.55ZM142.024 72.272H140.624C140.656 72.5345 140.873 72.706 141.188 72.706C141.363 72.706 141.583 72.6395 141.688 72.5205L141.923 72.748C141.744 72.944 141.447 73.042 141.181 73.042C140.614 73.042 140.25 72.6815 140.25 72.1285C140.25 71.6035 140.617 71.229 141.156 71.229C141.713 71.229 142.091 71.5685 142.024 72.272ZM140.631 71.9675H141.678C141.657 71.6945 141.457 71.551 141.167 71.551C140.904 71.551 140.687 71.6945 140.631 71.9675ZM143.697 71.46L143.494 71.698C143.358 71.572 143.211 71.537 143.039 71.537C142.819 71.5335 142.672 71.607 142.672 71.7435C142.675 71.887 142.826 71.943 143.046 71.964C143.365 71.992 143.781 72.062 143.778 72.5065C143.774 72.8285 143.491 73.0525 143.043 73.0525C142.763 73.0525 142.483 72.9895 142.255 72.734L142.444 72.4785C142.605 72.657 142.847 72.7305 143.05 72.734C143.221 72.734 143.414 72.671 143.417 72.51C143.421 72.356 143.274 72.2965 143.018 72.272C142.693 72.2405 142.318 72.1355 142.315 71.754C142.315 71.3725 142.71 71.229 143.032 71.229C143.298 71.229 143.505 71.2885 143.697 71.46ZM144.331 70.816L144.695 70.7775V71.278H145.199V71.5895H144.691V72.412C144.691 72.594 144.772 72.6955 144.94 72.6955C145.01 72.6955 145.09 72.671 145.16 72.636L145.265 72.944C145.146 72.9965 145.041 73.021 144.919 73.021C144.544 73.0315 144.331 72.818 144.331 72.412V71.5895H143.998V71.278H144.331V70.816ZM146.89 70.907V71.887H147.632C148.28 71.887 148.276 70.907 147.632 70.907H146.89ZM147.632 72.2475H146.89V73H146.498V70.55C146.873 70.55 147.258 70.5465 147.632 70.5465C148.801 70.5465 148.805 72.2405 147.632 72.2475ZM148.838 71.2745H149.174L149.199 71.502C149.325 71.2815 149.521 71.236 149.706 71.236C149.874 71.236 150.035 71.2955 150.133 71.383L149.969 71.698C149.881 71.628 149.797 71.593 149.664 71.593C149.416 71.593 149.199 71.747 149.199 72.0655V73H148.838V71.2745ZM150.74 71.2675V73H150.38V71.2675H150.74ZM150.338 70.767C150.338 71.0645 150.786 71.0645 150.786 70.767C150.786 70.473 150.338 70.473 150.338 70.767ZM152.445 72.5345L152.69 72.776C152.498 72.965 152.284 73.0455 152.036 73.0455C151.539 73.0455 151.126 72.734 151.126 72.139C151.126 71.544 151.535 71.2325 152.036 71.2325C152.274 71.2325 152.473 71.306 152.659 71.488L152.428 71.7295C152.319 71.6245 152.176 71.5755 152.039 71.5755C151.728 71.5755 151.486 71.796 151.486 72.139C151.486 72.503 151.738 72.6955 152.036 72.6955C152.183 72.6955 152.333 72.65 152.445 72.5345ZM154.64 72.272H153.24C153.271 72.5345 153.488 72.706 153.803 72.706C153.978 72.706 154.199 72.6395 154.304 72.5205L154.538 72.748C154.36 72.944 154.062 73.042 153.796 73.042C153.229 73.042 152.865 72.6815 152.865 72.1285C152.865 71.6035 153.233 71.229 153.772 71.229C154.328 71.229 154.706 71.5685 154.64 72.272ZM153.247 71.9675H154.293C154.272 71.6945 154.073 71.551 153.782 71.551C153.52 71.551 153.303 71.6945 153.247 71.9675Z" fill="white"/>
<path d="M69.9265 71.893L69.629 72.0925C69.5135 71.9245 69.279 71.823 69.0235 71.8195C68.6945 71.8195 68.4565 71.956 68.4565 72.1905C68.4565 72.4285 68.7295 72.495 69.0515 72.5405C69.5555 72.6105 70.035 72.7505 70.035 73.3C70.0315 73.8495 69.531 74.056 69.02 74.056C68.551 74.056 68.1905 73.9125 67.9665 73.4995L68.2605 73.3035C68.4355 73.601 68.74 73.706 69.0235 73.706C69.3175 73.706 69.643 73.608 69.643 73.3C69.643 73.034 69.3595 72.943 69.0165 72.8975C68.53 72.831 68.068 72.7085 68.068 72.1835C68.0645 71.676 68.572 71.48 69.013 71.48C69.3665 71.48 69.72 71.564 69.9265 71.893ZM72.0831 73.272H70.6831C70.7146 73.5345 70.9316 73.706 71.2466 73.706C71.4216 73.706 71.6421 73.6395 71.7471 73.5205L71.9816 73.748C71.8031 73.944 71.5056 74.042 71.2396 74.042C70.6726 74.042 70.3086 73.6815 70.3086 73.1285C70.3086 72.6035 70.6761 72.229 71.2151 72.229C71.7716 72.229 72.1496 72.5685 72.0831 73.272ZM70.6901 72.9675H71.7366C71.7156 72.6945 71.5161 72.551 71.2256 72.551C70.9631 72.551 70.7461 72.6945 70.6901 72.9675ZM72.4647 71.5535H72.8252V74H72.4647V71.5535ZM74.9986 73.272H73.5986C73.6301 73.5345 73.8471 73.706 74.1621 73.706C74.3371 73.706 74.5576 73.6395 74.6626 73.5205L74.8971 73.748C74.7186 73.944 74.4211 74.042 74.1551 74.042C73.5881 74.042 73.2241 73.6815 73.2241 73.1285C73.2241 72.6035 73.5916 72.229 74.1306 72.229C74.6871 72.229 75.0651 72.5685 74.9986 73.272ZM73.6056 72.9675H74.6521C74.6311 72.6945 74.4316 72.551 74.1411 72.551C73.8786 72.551 73.6616 72.6945 73.6056 72.9675ZM76.5807 73.5345L76.8257 73.776C76.6332 73.965 76.4197 74.0455 76.1712 74.0455C75.6742 74.0455 75.2612 73.734 75.2612 73.139C75.2612 72.544 75.6707 72.2325 76.1712 72.2325C76.4092 72.2325 76.6087 72.306 76.7942 72.488L76.5632 72.7295C76.4547 72.6245 76.3112 72.5755 76.1747 72.5755C75.8632 72.5755 75.6217 72.796 75.6217 73.139C75.6217 73.503 75.8737 73.6955 76.1712 73.6955C76.3182 73.6955 76.4687 73.65 76.5807 73.5345ZM77.3395 71.816L77.7035 71.7775V72.278H78.2075V72.5895H77.7V73.412C77.7 73.594 77.7805 73.6955 77.9485 73.6955C78.0185 73.6955 78.099 73.671 78.169 73.636L78.274 73.944C78.155 73.9965 78.05 74.021 77.9275 74.021C77.553 74.0315 77.3395 73.818 77.3395 73.412V72.5895H77.007V72.278H77.3395V71.816ZM79.8954 72.915V73.636H80.6304C80.8474 73.636 81.1484 73.566 81.1484 73.2965C81.1484 73.034 80.8579 72.915 80.6339 72.915C80.3854 72.915 80.1439 72.915 79.8954 72.915ZM79.8954 71.9035V72.565H80.6339C80.9279 72.565 81.0749 72.4495 81.0749 72.257C81.0749 72.0855 80.9244 71.9035 80.6304 71.9035H79.8954ZM79.5069 71.55H80.6304C81.0959 71.55 81.4634 71.7635 81.4634 72.25C81.4634 72.4565 81.3549 72.642 81.1239 72.7365C81.4179 72.824 81.5404 73.1145 81.5404 73.3C81.5404 73.8355 81.1134 74 80.6304 74C80.2489 74 79.8884 74 79.5069 74V71.55ZM83.6016 73.272H82.2016C82.2331 73.5345 82.4501 73.706 82.7651 73.706C82.9401 73.706 83.1606 73.6395 83.2656 73.5205L83.5001 73.748C83.3216 73.944 83.0241 74.042 82.7581 74.042C82.1911 74.042 81.8271 73.6815 81.8271 73.1285C81.8271 72.6035 82.1946 72.229 82.7336 72.229C83.2901 72.229 83.6681 72.5685 83.6016 73.272ZM82.2086 72.9675H83.2551C83.2341 72.6945 83.0346 72.551 82.7441 72.551C82.4816 72.551 82.2646 72.6945 82.2086 72.9675ZM85.2747 72.46L85.0717 72.698C84.9352 72.572 84.7882 72.537 84.6167 72.537C84.3962 72.5335 84.2492 72.607 84.2492 72.7435C84.2527 72.887 84.4032 72.943 84.6237 72.964C84.9422 72.992 85.3587 73.062 85.3552 73.5065C85.3517 73.8285 85.0682 74.0525 84.6202 74.0525C84.3402 74.0525 84.0602 73.9895 83.8327 73.734L84.0217 73.4785C84.1827 73.657 84.4242 73.7305 84.6272 73.734C84.7987 73.734 84.9912 73.671 84.9947 73.51C84.9982 73.356 84.8512 73.2965 84.5957 73.272C84.2702 73.2405 83.8957 73.1355 83.8922 72.754C83.8922 72.3725 84.2877 72.229 84.6097 72.229C84.8757 72.229 85.0822 72.2885 85.2747 72.46ZM85.9083 71.816L86.2723 71.7775V72.278H86.7763V72.5895H86.2688V73.412C86.2688 73.594 86.3493 73.6955 86.5173 73.6955C86.5873 73.6955 86.6678 73.671 86.7378 73.636L86.8428 73.944C86.7238 73.9965 86.6188 74.021 86.4963 74.021C86.1218 74.0315 85.9083 73.818 85.9083 73.412V72.5895H85.5758V72.278H85.9083V71.816ZM88.4677 71.907V72.887H89.2097C89.8572 72.887 89.8537 71.907 89.2097 71.907H88.4677ZM89.2097 73.2475H88.4677V74H88.0757V71.55C88.4502 71.55 88.8352 71.5465 89.2097 71.5465C90.3787 71.5465 90.3822 73.2405 89.2097 73.2475ZM90.4155 72.2745H90.7515L90.776 72.502C90.902 72.2815 91.098 72.236 91.2835 72.236C91.4515 72.236 91.6125 72.2955 91.7105 72.383L91.546 72.698C91.4585 72.628 91.3745 72.593 91.2415 72.593C90.993 72.593 90.776 72.747 90.776 73.0655V74H90.4155V72.2745ZM92.3175 72.2675V74H91.957V72.2675H92.3175ZM91.915 71.767C91.915 72.0645 92.363 72.0645 92.363 71.767C92.363 71.473 91.915 71.473 91.915 71.767ZM94.0226 73.5345L94.2676 73.776C94.0751 73.965 93.8616 74.0455 93.6131 74.0455C93.1161 74.0455 92.7031 73.734 92.7031 73.139C92.7031 72.544 93.1126 72.2325 93.6131 72.2325C93.8511 72.2325 94.0506 72.306 94.2361 72.488L94.0051 72.7295C93.8966 72.6245 93.7531 72.5755 93.6166 72.5755C93.3051 72.5755 93.0636 72.796 93.0636 73.139C93.0636 73.503 93.3156 73.6955 93.6131 73.6955C93.7601 73.6955 93.9106 73.65 94.0226 73.5345ZM96.2174 73.272H94.8174C94.8489 73.5345 95.0659 73.706 95.3809 73.706C95.5559 73.706 95.7764 73.6395 95.8814 73.5205L96.1159 73.748C95.9374 73.944 95.6399 74.042 95.3739 74.042C94.8069 74.042 94.4429 73.6815 94.4429 73.1285C94.4429 72.6035 94.8104 72.229 95.3494 72.229C95.9059 72.229 96.2839 72.5685 96.2174 73.272ZM94.8244 72.9675H95.8709C95.8499 72.6945 95.6504 72.551 95.3599 72.551C95.0974 72.551 94.8804 72.6945 94.8244 72.9675Z" fill="white"/>
<path d="M135.331 77.1197H136.215L135.915 78.3466H136.956L137.264 77.1197H138.139L137.84 78.3466H138.439V79.1064H137.65L137.224 80.7448H137.879V81.5205H137.051L136.775 82.6603H135.891L136.167 81.5205H135.118L134.842 82.6603H133.966L134.242 81.5205H133.635V80.7448H134.432L134.85 79.0985H134.195V78.3466H135.031L135.331 77.1197ZM136.83 79.051H135.686L135.244 80.7923H136.388L136.83 79.051Z" fill="#181818"/>
<path d="M139.13 82.6603V81.9242H140.124V78.2041L139.178 78.4732V77.6975L141 77.1197V81.9242H141.962V82.6603H139.13Z" fill="#181818"/>
<path d="M143.521 78.6948H142.637C142.716 77.4205 143.844 77.0485 144.885 77.0485C145.911 77.0485 147.023 77.4601 147.023 78.7344C147.023 80.072 145.95 80.4124 144.838 80.4124C144.294 80.4124 143.465 80.547 143.465 81.2593V81.8292H147.023V82.6603H142.613C142.613 82.1933 142.613 81.7263 142.613 81.2593C142.613 79.9929 143.757 79.6288 144.83 79.6288C145.327 79.6288 146.155 79.4705 146.155 78.7502C146.155 78.0537 145.556 77.84 144.885 77.8162C144.246 77.8162 143.536 78.0458 143.521 78.6948Z" fill="#181818"/>
<path d="M148.812 79.4072V80.3728C148.812 82.4782 151.668 82.4782 151.668 80.3728V79.4072C151.668 77.3334 148.812 77.3097 148.812 79.4072ZM147.929 80.3728V79.4072C147.929 76.1937 152.551 76.2016 152.551 79.4072V80.3728C152.551 83.5784 147.929 83.5863 147.929 80.3728Z" fill="#181818"/>
<path d="M154.336 79.4072V80.3728C154.336 82.4782 157.191 82.4782 157.191 80.3728V79.4072C157.191 77.3334 154.336 77.3097 154.336 79.4072ZM153.452 80.3728V79.4072C153.452 76.1937 158.075 76.2016 158.075 79.4072V80.3728C158.075 83.5784 153.452 83.5863 153.452 80.3728Z" fill="#181818"/>
<path d="M71.4666 94.1197H72.3501L72.0503 95.3466H73.0916L73.3993 94.1197H74.2749L73.9752 95.3466H74.5747V96.1065H73.7858L73.3598 97.745H74.0146V98.5207H73.1863L72.9102 99.6605H72.0267L72.3028 98.5207H71.2536L70.9775 99.6605H70.1018L70.3779 98.5207H69.7705V97.745H70.5673L70.9854 96.0986H70.3306V95.3466H71.1668L71.4666 94.1197ZM72.9654 96.0511H71.8216L71.3798 97.7925H72.5236L72.9654 96.0511Z" fill="#181818"/>
<path d="M75.2659 99.6605V98.9244H76.2598V95.2041L75.3132 95.4733V94.6975L77.1355 94.1197V98.9244H78.0979V99.6605H75.2659Z" fill="#181818"/>
<path d="M79.6565 95.6949H78.7729C78.8518 94.4205 79.9799 94.0485 81.0212 94.0485C82.0467 94.0485 83.159 94.4601 83.159 95.7345C83.159 97.0722 82.0862 97.4125 80.9739 97.4125C80.4295 97.4125 79.6012 97.5471 79.6012 98.2595V98.8294H83.159V99.6605H78.7493C78.7493 99.1935 78.7493 98.7265 78.7493 98.2595C78.7493 96.993 79.8931 96.6289 80.966 96.6289C81.463 96.6289 82.2913 96.4706 82.2913 95.7503C82.2913 95.0537 81.6917 94.84 81.0212 94.8163C80.3822 94.8163 79.6722 95.0458 79.6565 95.6949Z" fill="#181818"/>
<path d="M84.9482 96.4073V97.3729C84.9482 99.4784 87.8039 99.4784 87.8039 97.3729V96.4073C87.8039 94.3334 84.9482 94.3097 84.9482 96.4073ZM84.0647 97.3729V96.4073C84.0647 93.1936 88.6874 93.2015 88.6874 96.4073V97.3729C88.6874 100.579 84.0647 100.587 84.0647 97.3729Z" fill="#181818"/>
<path d="M90.4718 96.4073V97.3729C90.4718 99.4784 93.3275 99.4784 93.3275 97.3729V96.4073C93.3275 94.3334 90.4718 94.3097 90.4718 96.4073ZM89.5882 97.3729V96.4073C89.5882 93.1936 94.211 93.2015 94.211 96.4073V97.3729C94.211 100.579 89.5882 100.587 89.5882 97.3729Z" fill="#181818"/>
<path d="M72.3825 80.1197H73.266L72.9662 81.3466H74.0075L74.3152 80.1197H75.1908L74.891 81.3466H75.4906V82.1065H74.7017L74.2757 83.745H74.9305V84.5207H74.1022L73.8261 85.6605H72.9426L73.2187 84.5207H72.1695L71.8934 85.6605H71.0177L71.2938 84.5207H70.6864V83.745H71.4832L71.9013 82.0986H71.2465V81.3466H72.0827L72.3825 80.1197ZM73.8813 82.0511H72.7374L72.2957 83.7925H73.4395L73.8813 82.0511Z" fill="#181818" fill-opacity="0.5"/>
<path d="M76.1818 85.6605V84.9244H77.1757V81.2041L76.2291 81.4733V80.6975L78.0514 80.1197V84.9244H79.0138V85.6605H76.1818Z" fill="#181818" fill-opacity="0.5"/>
<path d="M83.7199 80.1276V80.9588H80.6197V82.1302H81.8661C83.1204 82.1302 84.0276 82.7001 84.0276 83.8954C84.0276 85.0668 83.0652 85.7159 81.8661 85.7159C80.7065 85.7159 79.6415 85.3122 79.6336 84.0299H80.5171C80.5171 84.7265 81.2823 84.8848 81.8582 84.8848C82.5287 84.8848 83.144 84.5682 83.144 83.8954C83.1519 83.2621 82.5997 82.9534 81.8661 82.9534H79.7598C79.7598 81.9957 79.7598 81.1012 79.7598 80.1276H83.7199Z" fill="#181818" fill-opacity="0.5"/>
<path d="M85.71 82.4073V83.3729C85.71 85.4784 88.5657 85.4784 88.5657 83.3729V82.4073C88.5657 80.3334 85.71 80.3097 85.71 82.4073ZM84.8265 83.3729V82.4073C84.8265 79.1936 89.4492 79.2015 89.4492 82.4073V83.3729C89.4492 86.5787 84.8265 86.5866 84.8265 83.3729Z" fill="#181818" fill-opacity="0.5"/>
<path d="M91.2336 82.4073V83.3729C91.2336 85.4784 94.0893 85.4784 94.0893 83.3729V82.4073C94.0893 80.3334 91.2336 80.3097 91.2336 82.4073ZM90.3501 83.3729V82.4073C90.3501 79.1936 94.9728 79.2015 94.9728 82.4073V83.3729C94.9728 86.5787 90.3501 86.5866 90.3501 83.3729Z" fill="#181818" fill-opacity="0.5"/>
<path d="M70.5507 108.499H71.4342L71.1344 109.726H72.1757L72.4834 108.499H73.359L73.0593 109.726H73.6588V110.486H72.8699L72.4439 112.124H73.0987V112.9H72.2704L71.9943 114.04H71.1108L71.3869 112.9H70.3377L70.0616 114.04H69.1859L69.462 112.9H68.8546V112.124H69.6514L70.0695 110.478H69.4147V109.726H70.2509L70.5507 108.499ZM72.0495 110.43H70.9057L70.4639 112.172H71.6077L72.0495 110.43Z" fill="#181818" fill-opacity="0.5"/>
<path d="M75.3124 110.074H74.4289C74.5077 108.8 75.6358 108.428 76.6771 108.428C77.7026 108.428 78.8149 108.839 78.8149 110.114C78.8149 111.452 77.7421 111.792 76.6298 111.792C76.0855 111.792 75.2572 111.926 75.2572 112.639V113.209H78.8149V114.04H74.4052C74.4052 113.573 74.4052 113.106 74.4052 112.639C74.4052 111.372 75.549 111.008 76.6219 111.008C77.1189 111.008 77.9472 110.85 77.9472 110.13C77.9472 109.433 77.3477 109.219 76.6771 109.196C76.0381 109.196 75.3282 109.425 75.3124 110.074Z" fill="#181818" fill-opacity="0.5"/>
<path d="M80.6041 110.787V111.752C80.6041 113.858 83.4598 113.858 83.4598 111.752V110.787C83.4598 108.713 80.6041 108.689 80.6041 110.787ZM79.7206 111.752V110.787C79.7206 107.573 84.3433 107.581 84.3433 110.787V111.752C84.3433 114.958 79.7206 114.966 79.7206 111.752Z" fill="#181818" fill-opacity="0.5"/>
<path d="M86.1277 110.787V111.752C86.1277 113.858 88.9834 113.858 88.9834 111.752V110.787C88.9834 108.713 86.1277 108.689 86.1277 110.787ZM85.2442 111.752V110.787C85.2442 107.573 89.8669 107.581 89.8669 110.787V111.752C89.8669 114.958 85.2442 114.966 85.2442 111.752Z" fill="#181818" fill-opacity="0.5"/>
<path d="M91.6513 110.787V111.752C91.6513 113.858 94.507 113.858 94.507 111.752V110.787C94.507 108.713 91.6513 108.689 91.6513 110.787ZM90.7678 111.752V110.787C90.7678 107.573 95.3905 107.581 95.3905 110.787V111.752C95.3905 114.958 90.7678 114.966 90.7678 111.752Z" fill="#181818" fill-opacity="0.5"/>
</svg>
