<svg width="132" height="44" viewBox="0 0 132 44" fill="none" xmlns="http://www.w3.org/2000/svg">
<path d="M89.2559 24.7886C89.2559 26.819 88.5489 28.5411 87.1349 29.9551C85.739 31.3691 84.0259 32.0761 81.9956 32.0761C79.9471 32.0761 78.2159 31.3782 76.8019 29.9823C75.406 28.5683 74.7081 26.8371 74.7081 24.7886C74.7081 22.7583 75.4151 21.0452 76.8291 19.6493C78.2431 18.2353 79.9652 17.5284 81.9956 17.5284C83.2827 17.5284 84.4791 17.8456 85.5849 18.4801V10.1321H89.2559V24.7886ZM85.5849 24.7886C85.5849 23.8097 85.2314 22.9668 84.5245 22.2598C83.8175 21.5528 82.9745 21.1993 81.9956 21.1993C80.9986 21.1993 80.1465 21.5528 79.4395 22.2598C78.7325 22.9486 78.379 23.7916 78.379 24.7886C78.379 25.7857 78.7325 26.6377 79.4395 27.3447C80.1465 28.0517 80.9986 28.4052 81.9956 28.4052C82.9926 28.4052 83.8356 28.0517 84.5245 27.3447C85.2314 26.6377 85.5849 25.7857 85.5849 24.7886Z" fill="white"/>
<path d="M98.4064 21.1993C97.4094 21.1993 96.5574 21.5528 95.8504 22.2598C95.1434 22.9486 94.7899 23.7916 94.7899 24.7886V31.6682H91.119V24.7886C91.119 22.7583 91.826 21.0452 93.24 19.6493C94.6539 18.2353 96.3761 17.5284 98.4064 17.5284V21.1993Z" fill="white"/>
<path d="M114.775 24.7886C114.775 26.819 114.068 28.5411 112.654 29.9551C111.258 31.3691 109.545 32.0761 107.515 32.0761C105.466 32.0761 103.735 31.3782 102.321 29.9823C100.925 28.5683 100.227 26.8371 100.227 24.7886C100.227 22.7583 100.934 21.0452 102.348 19.6493C103.762 18.2353 105.484 17.5284 107.515 17.5284C109.545 17.5284 111.258 18.2353 112.654 19.6493C114.068 21.0452 114.775 22.7583 114.775 24.7886ZM111.104 24.7886C111.104 23.8097 110.751 22.9668 110.044 22.2598C109.337 21.5528 108.494 21.1993 107.515 21.1993C106.518 21.1993 105.666 21.5528 104.959 22.2598C104.252 22.9486 103.898 23.7916 103.898 24.7886C103.898 25.7857 104.252 26.6377 104.959 27.3447C105.666 28.0517 106.518 28.4052 107.515 28.4052C108.512 28.4052 109.355 28.0517 110.044 27.3447C110.751 26.6377 111.104 25.7857 111.104 24.7886Z" fill="white"/>
<path d="M131.239 24.8158C131.239 26.8462 130.532 28.5683 129.118 29.9823C127.722 31.3782 126.009 32.0761 123.979 32.0761C122.673 32.0761 121.468 31.7589 120.362 31.1244V39.4724H116.691V24.8158C116.691 22.7674 117.389 21.0452 118.785 19.6493C120.199 18.2535 121.93 17.5555 123.979 17.5555C126.009 17.5555 127.722 18.2625 129.118 19.6765C130.532 21.0724 131.239 22.7855 131.239 24.8158ZM127.568 24.8158C127.568 23.8188 127.215 22.9758 126.508 22.287C125.819 21.58 124.976 21.2265 123.979 21.2265C122.982 21.2265 122.13 21.58 121.423 22.287C120.716 22.9758 120.362 23.8188 120.362 24.8158C120.362 25.8129 120.716 26.6649 121.423 27.3719C122.13 28.0608 122.982 28.4052 123.979 28.4052C124.976 28.4052 125.819 28.0608 126.508 27.3719C127.215 26.6649 127.568 25.8129 127.568 24.8158Z" fill="white"/>
<path d="M49.3469 27.3991L51.461 25.354C54.5172 22.4126 55.3674 20.9879 55.3674 19.1266C55.3674 16.1623 53.2993 14.3929 49.5996 14.3929C45.7162 14.3929 43.5102 16.3461 43.1655 19.8389L43.1425 20.0687H47.2787L47.3017 19.8389C47.4626 18.1844 48.06 17.4261 49.255 17.4261C50.3809 17.4261 51.0473 18.0925 51.0473 19.2874C51.0473 20.8041 50.2431 21.9071 47.8762 24.1361L42.8897 28.8238V30.6162H55.1836V27.3991H49.3469Z" fill="white"/>
<path d="M71.1566 27.0774V23.8603H69.2264V14.7605H64.7225L57.6449 24.8025V27.0774H65.0901V30.6162H69.2264V27.0774H71.1566ZM65.0901 23.8603H61.896L64.2399 20.5283C64.4927 20.1836 64.7684 19.7011 65.0901 19.1266V23.8603Z" fill="white"/>
<path d="M20.9371 12.2242L15.1204 17.5437L0 6.19514L4.64984 0L20.9371 12.2242Z" fill="white"/>
<path d="M36.5151 30.6103C36.5138 33.8348 35.3492 36.9506 33.2352 39.3855C31.1212 41.8204 28.1997 43.411 25.0073 43.865C24.3714 43.955 23.7299 44.0001 23.0876 44C20.1939 44.0007 17.3789 43.0577 15.0695 41.314C9.77035 37.3369 8.25745 30.1594 11.1995 24.457C11.7654 23.3595 12.4795 22.345 13.3217 21.442C13.8213 20.9056 14.3646 20.4117 14.9462 19.9656L25.9339 9.69748L31.2209 15.358L22.7519 23.2722L18.6911 27.1871C18.6767 27.2051 18.6628 27.2218 18.6502 27.2398C17.893 28.2456 17.4971 29.4773 17.5264 30.7359C17.5557 31.9945 18.0086 33.2064 18.8117 34.1758C19.6149 35.1453 20.7215 35.8156 21.9527 36.0784C23.1839 36.3413 24.4677 36.1813 25.5968 35.6244C26.7258 35.0674 27.6341 34.1461 28.1748 33.0092C28.7155 31.8723 28.8571 30.5863 28.5767 29.359C28.2962 28.1317 27.6101 27.0348 26.6293 26.2456C25.6485 25.4563 24.4302 25.0209 23.1713 25.0096L29.7827 18.9616C30.0437 19.1106 30.302 19.2712 30.5558 19.4404C30.7607 19.5778 30.9626 19.7208 31.1615 19.8693C34.6674 22.5022 36.5151 26.5333 36.5151 30.6103Z" fill="white"/>
</svg>
